<svg xmlns="http://www.w3.org/2000/svg" xmlns:xlink="http://www.w3.org/1999/xlink" width="500" zoomAndPan="magnify" viewBox="0 0 375 374.999991" height="500" preserveAspectRatio="xMidYMid meet" version="1.0"><defs><g/><clipPath id="66b0cea262"><path d="M 62 63 L 319.804688 63 L 319.804688 319.027344 L 62 319.027344 Z M 62 63 " clip-rule="nonzero"/></clipPath><clipPath id="7b48087de7"><path d="M 55.054688 55.777344 L 317 55.777344 L 317 317 L 55.054688 317 Z M 55.054688 55.777344 " clip-rule="nonzero"/></clipPath><clipPath id="1aeea8a4ae"><path d="M 129.792969 100 L 141 100 L 141 112.640625 L 129.792969 112.640625 Z M 129.792969 100 " clip-rule="nonzero"/></clipPath><clipPath id="00fd36bda9"><path d="M 119 111 L 132 111 L 132 126 L 119 126 Z M 119 111 " clip-rule="nonzero"/></clipPath><clipPath id="bd57fc8eeb"><path d="M 117.824219 114.699219 L 129.804688 110.332031 L 134.941406 124.421875 L 122.964844 128.792969 Z M 117.824219 114.699219 " clip-rule="nonzero"/></clipPath><clipPath id="74e99b1f71"><path d="M 117.824219 114.699219 L 129.804688 110.332031 L 134.941406 124.421875 L 122.964844 128.792969 Z M 117.824219 114.699219 " clip-rule="nonzero"/></clipPath><clipPath id="4d2834add1"><path d="M 94 234 L 126 234 L 126 251 L 94 251 Z M 94 234 " clip-rule="nonzero"/></clipPath><clipPath id="89deadcaef"><path d="M 97.300781 254.542969 L 93.453125 234.664062 L 122.167969 229.105469 L 126.015625 248.988281 Z M 97.300781 254.542969 " clip-rule="nonzero"/></clipPath><clipPath id="99fa2953eb"><path d="M 97.300781 254.542969 L 93.453125 234.664062 L 122.167969 229.105469 L 126.015625 248.988281 Z M 97.300781 254.542969 " clip-rule="nonzero"/></clipPath><clipPath id="400d3d1ee1"><path d="M 233 162 L 265 162 L 265 179 L 233 179 Z M 233 162 " clip-rule="nonzero"/></clipPath><clipPath id="9c2a207b09"><path d="M 261.882812 158.328125 L 265.539062 177.484375 L 237.542969 182.824219 L 233.890625 163.667969 Z M 261.882812 158.328125 " clip-rule="nonzero"/></clipPath><clipPath id="603e153ee2"><path d="M 261.882812 158.328125 L 265.539062 177.484375 L 237.542969 182.824219 L 233.890625 163.667969 Z M 261.882812 158.328125 " clip-rule="nonzero"/></clipPath><clipPath id="0bb3b4f90e"><path d="M 141.421875 96.140625 L 233.671875 96.140625 L 233.671875 174.140625 L 141.421875 174.140625 Z M 141.421875 96.140625 " clip-rule="nonzero"/></clipPath></defs><g clip-path="url(#66b0cea262)"><path fill="#365b6d" d="M 316.996094 182.238281 L 319.332031 186.199219 L 319.953125 190.777344 L 319.644531 190.941406 L 319.796875 191.0625 L 318.992188 195.53125 L 317.105469 199.679688 L 313.714844 202.707031 L 313.203125 208.902344 L 315.226562 212.988281 L 316.609375 217.332031 L 316.332031 221.949219 L 314.445312 226.175781 L 311.410156 229.640625 L 307.453125 231.96875 L 305.171875 237.753906 L 306.722656 242.058594 L 306.429688 246.625 L 304.964844 250.910156 L 302.222656 254.5 L 298.582031 257.167969 L 294.3125 258.867188 L 290.800781 263.699219 L 290.925781 268.25 L 289.769531 272.628906 L 287.371094 276.476562 L 287.472656 276.578125 L 283.808594 279.285156 L 279.609375 280.910156 L 275.105469 281.382812 L 270.433594 285.488281 L 269.773438 290.015625 L 267.40625 293.917969 L 264.070312 296.953125 L 260.113281 299.214844 L 255.558594 299.960938 L 251.03125 299.039062 L 245.832031 301.847656 L 243.664062 305.90625 L 240.804688 309.503906 L 236.625 311.375 L 232.226562 312.304688 L 227.648438 312.152344 L 223.4375 310.285156 L 217.300781 311.523438 L 214.699219 315.230469 L 210.894531 317.738281 L 206.515625 319.003906 L 201.980469 318.925781 L 197.78125 317.242188 L 194.109375 314.601562 L 187.996094 314.609375 L 183.148438 318.164062 L 177.238281 319.136719 L 175.503906 318.925781 L 171.117188 317.746094 L 167.402344 315.144531 L 164.621094 311.582031 L 158.5 310.257812 L 154.3125 312.136719 L 149.746094 312.671875 L 145.300781 311.574219 L 141.460938 309.183594 L 138.207031 306.015625 L 136.496094 301.796875 L 130.835938 298.8125 L 126.386719 299.675781 L 121.816406 299.332031 L 117.691406 297.277344 L 114.628906 293.90625 L 112.097656 290.101562 L 111.410156 285.558594 L 106.8125 281.421875 L 102.3125 280.953125 L 97.910156 279.703125 L 94.679688 276.457031 L 92.007812 272.792969 L 90.792969 268.375 L 91.019531 263.789062 L 87.597656 258.917969 L 83.21875 257.476562 L 79.679688 254.601562 L 76.992188 250.988281 L 75.53125 246.726562 L 75.398438 242.214844 L 76.496094 237.773438 L 74.359375 232.1875 L 70.535156 229.664062 L 67.707031 226.132812 L 65.996094 221.976562 L 65.519531 217.503906 L 66.492188 213.085938 L 68.847656 209.214844 L 67.984375 203.027344 L 64.796875 199.773438 L 62.636719 195.746094 L 62.222656 191.21875 L 62.863281 186.765625 L 64.78125 182.652344 L 67.835938 179.214844 L 68.582031 173.378906 L 66.535156 169.292969 L 65.496094 164.910156 L 65.546875 160.347656 L 67.441406 156.164062 L 70.289062 152.539062 L 74.367188 150.421875 L 76.535156 144.527344 L 75.011719 140.199219 L 75.304688 135.628906 L 76.636719 131.261719 L 79.453125 127.671875 L 83.09375 124.914062 L 87.460938 123.460938 L 91.210938 118.480469 L 90.640625 113.964844 L 91.855469 109.554688 L 94.269531 105.664062 L 97.828125 102.792969 L 102.058594 101.023438 L 106.648438 100.671875 L 111.191406 96.734375 L 112.214844 92.304688 L 114.152344 88.179688 L 117.496094 85.035156 L 121.707031 83.316406 L 126.160156 82.730469 L 130.585938 83.5 L 136.21875 80.425781 L 138.054688 76.28125 L 140.933594 72.703125 L 145.089844 70.773438 L 149.484375 69.609375 L 154.027344 70.136719 L 158.136719 72.082031 L 164.207031 70.519531 L 167.027344 66.941406 L 170.707031 64.175781 L 175.183594 63.09375 L 175.199219 63.21875 L 179.789062 63.019531 L 183.996094 64.886719 L 187.574219 67.671875 L 193.957031 67.761719 L 197.371094 64.785156 L 201.628906 63.074219 L 206.214844 63.074219 L 210.609375 64.300781 L 214.339844 66.90625 L 217.453125 70.289062 L 223.269531 71.921875 L 227.371094 69.882812 L 231.949219 69.347656 L 236.476562 70.269531 L 240.308594 72.785156 L 243.652344 75.9375 L 245.441406 80.191406 L 250.765625 82.941406 L 255.316406 82.488281 L 259.878906 82.722656 L 264.011719 84.765625 L 267.199219 88.035156 L 269.644531 91.925781 L 270.382812 96.472656 L 274.910156 100.625 L 279.441406 100.910156 L 283.773438 102.398438 L 287.269531 105.367188 L 289.835938 109.175781 L 290.894531 113.644531 L 290.40625 118.164062 L 294.113281 123.261719 L 298.472656 124.621094 L 302.238281 127.210938 L 304.960938 130.890625 L 306.21875 135.261719 L 306.730469 139.832031 L 305.367188 144.273438 L 307.269531 150.117188 L 311.175781 152.382812 L 314.453125 155.617188 L 315.957031 159.96875 L 316.324219 164.488281 L 315.628906 169.035156 L 313.15625 172.949219 L 313.933594 178.800781 Z M 316.996094 182.238281 " fill-opacity="1" fill-rule="nonzero"/></g><path fill="#f7f7f7" d="M 311.878906 177.117188 L 314.210938 181.082031 L 314.832031 185.660156 L 314.523438 185.820312 L 314.679688 185.945312 L 313.875 190.414062 L 311.988281 194.558594 L 308.59375 197.585938 L 308.082031 203.78125 L 310.109375 207.871094 L 311.488281 212.214844 L 311.210938 216.828125 L 309.324219 221.054688 L 306.289062 224.523438 L 302.332031 226.847656 L 300.050781 232.632812 L 301.601562 236.941406 L 301.308594 241.503906 L 299.847656 245.789062 L 297.105469 249.382812 L 293.460938 252.050781 L 289.191406 253.746094 L 285.679688 258.582031 L 285.804688 263.128906 L 284.648438 267.511719 L 282.25 271.359375 L 282.355469 271.460938 L 278.691406 274.164062 L 274.492188 275.789062 L 269.988281 276.265625 L 265.3125 280.367188 L 264.65625 284.894531 L 262.285156 288.800781 L 258.949219 291.835938 L 254.996094 294.09375 L 250.4375 294.839844 L 245.910156 293.917969 L 240.710938 296.726562 L 238.546875 300.785156 L 235.6875 304.382812 L 231.503906 306.257812 L 227.109375 307.1875 L 222.53125 307.03125 L 218.316406 305.167969 L 212.183594 306.402344 L 209.578125 310.109375 L 205.773438 312.621094 L 201.394531 313.886719 L 196.859375 313.804688 L 192.664062 312.121094 L 188.992188 309.480469 L 182.878906 309.488281 L 178.027344 313.042969 L 172.121094 314.015625 L 170.386719 313.804688 L 165.996094 312.628906 L 162.28125 310.023438 L 159.503906 306.460938 L 153.382812 305.136719 L 149.191406 307.019531 L 144.628906 307.550781 L 140.179688 306.453125 L 136.34375 304.0625 L 133.085938 300.894531 L 131.375 296.675781 L 125.714844 293.691406 L 121.269531 294.554688 L 116.699219 294.210938 L 112.574219 292.15625 L 109.507812 288.785156 L 106.980469 284.984375 L 106.292969 280.441406 L 101.691406 276.300781 L 97.195312 275.832031 L 92.789062 274.582031 L 89.558594 271.335938 L 86.890625 267.671875 L 85.675781 263.253906 L 85.902344 258.667969 L 82.480469 253.796875 L 78.097656 252.359375 L 74.558594 249.484375 L 71.875 245.871094 L 70.410156 241.605469 L 70.28125 237.09375 L 71.378906 232.65625 L 69.242188 227.066406 L 65.417969 224.542969 L 62.585938 221.011719 L 60.875 216.859375 L 60.398438 212.382812 L 61.371094 207.964844 L 63.726562 204.097656 L 62.863281 197.910156 L 59.675781 194.65625 L 57.519531 190.625 L 57.101562 186.097656 L 57.746094 181.644531 L 59.660156 177.535156 L 62.71875 174.097656 L 63.464844 168.261719 L 61.417969 164.171875 L 60.378906 159.792969 L 60.429688 155.230469 L 62.324219 151.046875 L 65.167969 147.417969 L 69.25 145.304688 L 71.414062 139.410156 L 69.894531 135.082031 L 70.183594 130.507812 L 71.515625 126.144531 L 74.332031 122.550781 L 77.972656 119.796875 L 82.339844 118.339844 L 86.09375 113.359375 L 85.519531 108.847656 L 86.734375 104.4375 L 89.148438 100.546875 L 92.710938 97.671875 L 96.9375 95.902344 L 101.53125 95.550781 L 106.070312 91.617188 L 107.097656 87.183594 L 109.035156 83.058594 L 112.375 79.914062 L 116.589844 78.195312 L 121.042969 77.613281 L 125.46875 78.378906 L 131.097656 75.308594 L 132.933594 71.160156 L 135.816406 67.585938 L 139.96875 65.652344 L 144.363281 64.492188 L 148.90625 65.019531 L 153.015625 66.964844 L 159.085938 65.398438 L 161.910156 61.820312 L 165.589844 59.058594 L 170.0625 57.976562 L 170.078125 58.097656 L 174.671875 57.902344 L 178.875 59.765625 L 182.453125 62.554688 L 188.835938 62.640625 L 192.253906 59.664062 L 196.507812 57.953125 L 201.09375 57.953125 L 205.488281 59.183594 L 209.21875 61.785156 L 212.335938 65.171875 L 218.148438 66.800781 L 222.253906 64.761719 L 226.832031 64.226562 L 231.359375 65.148438 L 235.191406 67.664062 L 238.53125 70.816406 L 240.324219 75.074219 L 245.648438 77.824219 L 250.195312 77.371094 L 254.761719 77.605469 L 258.890625 79.644531 L 262.082031 82.914062 L 264.523438 86.804688 L 265.261719 91.351562 L 269.789062 95.507812 L 274.324219 95.792969 L 278.652344 97.277344 L 282.148438 100.246094 L 284.714844 104.058594 L 285.777344 108.523438 L 285.285156 113.046875 L 288.996094 118.140625 L 293.351562 119.503906 L 297.121094 122.089844 L 299.839844 125.769531 L 301.097656 130.144531 L 301.609375 134.714844 L 300.25 139.152344 L 302.152344 144.996094 L 306.054688 147.265625 L 309.332031 150.496094 L 310.839844 154.847656 L 311.203125 159.367188 L 310.511719 163.917969 L 308.039062 167.828125 L 308.8125 173.679688 Z M 311.878906 177.117188 " fill-opacity="1" fill-rule="nonzero"/><g clip-path="url(#7b48087de7)"><path fill="#365b6d" d="M 172.121094 316.050781 L 170.121094 315.925781 L 165.28125 314.171875 L 160.972656 311.433594 L 157.652344 307.5 L 156.21875 306.351562 L 154.429688 306.71875 L 149.683594 308.765625 L 144.546875 309.453125 L 139.539062 308.179688 L 135.179688 305.527344 L 131.398438 302.007812 L 129.335938 297.230469 L 128.210938 295.855469 L 126.332031 295.402344 L 121.328125 296.253906 L 116.179688 295.996094 L 111.527344 293.683594 L 107.695312 290.183594 L 105.574219 285.480469 L 104.40625 280.484375 L 103.6875 278.765625 L 101.894531 278.335938 L 96.796875 277.660156 L 91.882812 276.132812 L 88.058594 272.675781 L 85.484375 268.285156 L 83.746094 263.445312 L 84.089844 258.265625 L 83.867188 256.429688 L 82.253906 255.4375 L 77.367188 253.878906 L 73.277344 250.820312 L 70.03125 246.859375 L 68.21875 241.996094 L 68.210938 236.800781 L 69.972656 231.960938 L 70.164062 229.933594 L 68.636719 228.65625 L 64.355469 225.855469 L 60.707031 222.203125 L 58.792969 217.386719 L 58.25 212.230469 L 59.625 207.242188 L 62.125 202.722656 L 62.683594 201.023438 L 61.957031 199.195312 L 58.175781 195.765625 L 56.105469 191.09375 L 55.054688 186.089844 L 55.867188 181.023438 L 58.007812 176.320312 L 61.65625 172.621094 L 62.785156 171.148438 L 62.15625 169.363281 L 59.339844 165.015625 L 58.628906 159.910156 L 59.003906 154.863281 L 60.992188 150.195312 L 64.246094 146.292969 L 68.460938 143.308594 L 69.789062 142.101562 L 69.820312 140.199219 L 68.402344 135.292969 L 68.472656 130.203125 L 69.863281 125.25 L 72.914062 121.058594 L 77.175781 118.121094 L 82.121094 116.65625 L 83.949219 115.800781 L 84.359375 113.730469 L 83.949219 108.679688 L 85.097656 103.691406 L 87.925781 99.425781 L 91.757812 96.003906 L 96.535156 93.992188 L 101.691406 93.972656 L 103.554688 93.328125 L 104.398438 91.550781 L 105.144531 86.46875 L 107.710938 82.035156 L 111.5 78.644531 L 115.996094 76.25 L 121.078125 75.382812 L 126.089844 76.535156 L 127.945312 76.121094 L 129.34375 74.824219 L 131.308594 70.101562 L 134.777344 66.304688 L 139.320312 63.988281 L 144.253906 62.582031 L 149.433594 63.019531 L 154.054688 65.347656 L 156 65.882812 L 157.308594 64.402344 L 160.738281 60.5625 L 164.996094 57.800781 L 169.808594 55.941406 L 171.886719 55.816406 L 171.878906 56.207031 L 176.242188 56.878906 L 180.367188 58.472656 L 183.746094 61.339844 L 185.574219 62.152344 L 185.582031 61.933594 L 187.476562 61.390625 L 191.449219 58.238281 L 196.214844 56.492188 L 201.300781 56.210938 L 206.359375 57.300781 L 210.515625 60.402344 L 213.863281 64.332031 L 215.296875 65.339844 L 217.125 65.238281 L 221.804688 63.09375 L 226.933594 62.386719 L 231.957031 63.597656 L 236.359375 66.21875 L 240.089844 69.800781 L 242.050781 74.605469 L 243.257812 76.023438 L 245.070312 76.113281 L 250.175781 75.535156 L 255.242188 76.070312 L 259.804688 78.351562 L 263.769531 81.632812 L 265.832031 86.34375 L 267.015625 91.300781 L 267.867188 92.976562 L 269.628906 93.519531 L 274.71875 94.101562 L 279.457031 95.945312 L 283.664062 98.921875 L 286.308594 103.371094 L 287.722656 108.335938 L 287.507812 113.519531 L 287.875 115.195312 L 289.285156 116.335938 L 294.28125 117.679688 L 298.203125 121.015625 L 301.316406 125.007812 L 303.285156 129.769531 L 303.117188 134.925781 L 301.726562 139.863281 L 301.535156 141.777344 L 302.941406 143.125 L 307.335938 145.78125 L 310.859375 149.566406 L 312.734375 154.386719 L 313.164062 159.515625 L 311.957031 164.5 L 309.507812 169.050781 L 308.785156 170.753906 L 309.777344 172.398438 L 313.265625 176.121094 L 315.78125 180.578125 L 316.785156 185.652344 L 316.527344 185.945312 L 315.820312 191.035156 L 313.390625 195.5625 L 309.785156 199.1875 L 309.0625 200.902344 L 309.550781 202.566406 L 311.957031 207.132812 L 313.429688 212.082031 L 312.785156 217.214844 L 310.746094 221.933594 L 307.371094 225.789062 L 303.09375 228.667969 L 301.683594 229.882812 L 301.703125 231.851562 L 303.480469 236.683594 L 303.132812 241.824219 L 301.441406 246.632812 L 298.480469 250.785156 L 294.441406 254.015625 L 289.46875 255.582031 L 287.691406 256.253906 L 287.589844 258.179688 L 287.683594 263.09375 L 286.625 267.863281 L 283.992188 271.964844 L 284.226562 272.175781 L 283.742188 272.6875 L 279.707031 275.871094 L 274.988281 277.96875 L 269.804688 278.296875 L 268.011719 278.691406 L 267.308594 280.417969 L 266.050781 285.382812 L 263.917969 290.042969 L 260.136719 293.546875 L 255.5 295.785156 L 250.402344 296.171875 L 245.378906 295.441406 L 243.328125 295.449219 L 242.160156 297.136719 L 240.097656 301.8125 L 236.652344 305.597656 L 232.277344 308.328125 L 227.179688 309 L 222.105469 308.589844 L 217.335938 306.667969 L 215.566406 306.46875 L 213.855469 307.339844 L 210.753906 311.382812 L 206.515625 314.230469 L 201.597656 315.617188 L 196.488281 315.71875 L 191.761719 313.761719 L 187.550781 310.851562 L 185.847656 310.007812 L 185.839844 309.957031 L 184.230469 310.769531 L 180.582031 313.371094 L 176.523438 315.179688 Z M 155.65625 302.382812 L 157.140625 302.554688 L 160.785156 305.738281 L 164.964844 310.066406 L 170.605469 311.984375 L 172.125 312.128906 L 177.152344 311.003906 L 181.40625 308.09375 L 185.839844 306.050781 L 185.859375 306.285156 L 190.234375 308.304688 L 195.398438 311.1875 L 201.167969 311.917969 L 206.683594 309.855469 L 210.976562 305.703125 L 214.710938 302.921875 L 219.523438 303.316406 L 225.039062 305.359375 L 230.84375 304.507812 L 235.949219 301.472656 L 238.632812 296.144531 L 241.75 292.414062 L 246.605469 291.894531 L 252.5 292.824219 L 257.914062 290.320312 L 262.042969 286.070312 L 263.792969 280.300781 L 265.4375 275.773438 L 270.167969 274.277344 L 275.917969 273.640625 L 280.730469 270.378906 L 280.933594 270.179688 L 283.867188 264.949219 L 283.773438 258.976562 L 284.613281 254.097656 L 288.863281 251.523438 L 294.472656 249.542969 L 298.53125 245.074219 L 299.789062 239.195312 L 298.640625 233.304688 L 298.070312 228.488281 L 301.585938 225.003906 L 306.304688 221.472656 L 309.214844 216.308594 L 309.070312 210.394531 L 306.496094 205.097656 L 305.421875 200.433594 L 307.597656 196.199219 L 311.679688 191.800781 L 312.859375 185.914062 L 312.871094 185.628906 L 311.269531 179.949219 L 307.476562 175.5 L 307.628906 175.289062 L 305.105469 171.171875 L 306.347656 166.394531 L 309.421875 161.269531 L 309.332031 155.214844 L 306.5625 149.824219 L 301.601562 146.355469 L 297.988281 143.117188 L 298.320312 138.203125 L 299.722656 132.410156 L 298.324219 126.566406 L 294.347656 122.039062 L 288.714844 120.066406 L 284.496094 117.507812 L 283.582031 112.65625 L 283.539062 106.734375 L 280.933594 101.308594 L 275.945312 97.839844 L 269.941406 97.109375 L 265.363281 95.757812 L 263.417969 91.382812 L 261.671875 85.699219 L 257.671875 81.40625 L 252.246094 78.988281 L 246.277344 79.617188 L 241.53125 79.25 L 238.355469 75.609375 L 235.613281 70.328125 L 230.722656 66.800781 L 224.71875 66.246094 L 219.179688 68.402344 L 214.375 68.972656 L 210.351562 66.269531 L 206.515625 61.710938 L 200.847656 59.78125 L 194.945312 60.460938 L 189.804688 63.570312 L 185.5625 65.777344 L 185.554688 65.886719 L 181.152344 63.738281 L 176.25 60.25 L 170.277344 59.980469 L 169.800781 59.714844 L 164.359375 61.820312 L 160.835938 66.386719 L 156.820312 69.296875 L 152.125 68.28125 L 146.449219 66.210938 L 140.511719 67.160156 L 135.515625 70.460938 L 132.589844 75.71875 L 129.746094 79.570312 L 124.96875 79.6875 L 118.957031 79.148438 L 113.339844 81.335938 L 109.390625 85.859375 L 108.179688 91.652344 L 105.875 95.996094 L 101.304688 97.6875 L 95.511719 98.585938 L 90.554688 101.796875 L 87.796875 107.0625 L 87.816406 112.972656 L 86.707031 117.738281 L 82.601562 120.203125 L 77.234375 122.726562 L 73.199219 127.027344 L 71.785156 132.792969 L 73.140625 138.546875 L 73.050781 143.351562 L 69.863281 146.824219 L 64.933594 150.285156 L 62.511719 155.734375 L 62.058594 161.695312 L 64.972656 166.960938 L 66.402344 171.589844 L 63.976562 175.832031 L 59.925781 180.21875 L 58.542969 186.082031 L 60.28125 191.765625 L 63.96875 196.359375 L 66.519531 200.542969 L 65.175781 205.316406 L 62.59375 210.570312 L 62.394531 216.472656 L 65.292969 221.625 L 69.871094 225.488281 L 73.175781 228.757812 L 73.265625 233.589844 L 71.734375 239.332031 L 73.316406 245.089844 L 77.164062 249.652344 L 82.734375 251.816406 L 86.824219 254.355469 L 87.957031 259.113281 L 87.933594 265.015625 L 90.726562 270.261719 L 95.585938 273.710938 L 101.472656 274.320312 L 106.042969 276.046875 L 108.105469 280.382812 L 109.523438 286.203125 L 113.671875 290.511719 L 119.230469 292.464844 L 125.128906 292.121094 L 129.972656 292.398438 L 132.925781 296.230469 L 135.808594 301.472656 L 140.839844 304.605469 L 146.660156 305.34375 L 152.351562 303.609375 Z M 155.65625 302.382812 " fill-opacity="1" fill-rule="nonzero"/></g><g fill="#62ddd6" fill-opacity="1"><g transform="translate(80.25334, 224.626411)"><g><path d="M 3.875 -49.3125 C 4.4375 -50.101562 5.398438 -50.5 6.765625 -50.5 C 7.617188 -50.5 8.207031 -50.335938 8.53125 -50.015625 C 8.863281 -49.640625 9.992188 -49.191406 11.921875 -48.671875 C 13.898438 -48.148438 15.359375 -47.890625 16.296875 -47.890625 C 17.328125 -47.890625 18.570312 -47.609375 20.03125 -47.046875 C 21.019531 -46.628906 21.515625 -46.328125 21.515625 -46.140625 C 21.515625 -45.992188 21.300781 -45.753906 20.875 -45.421875 C 20.457031 -45.046875 19.566406 -44.859375 18.203125 -44.859375 C 17.867188 -44.859375 16.691406 -44.90625 14.671875 -45 C 13.492188 -45.050781 11.753906 -45.144531 9.453125 -45.28125 C 9.359375 -44.53125 9.144531 -43.023438 8.8125 -40.765625 C 8.394531 -37.671875 8.09375 -33.460938 7.90625 -28.140625 C 7.8125 -26.359375 7.71875 -23.703125 7.625 -20.171875 C 8.09375 -20.078125 9.03125 -19.960938 10.4375 -19.828125 C 10.769531 -19.773438 11.21875 -19.75 11.78125 -19.75 C 13.238281 -19.75 14.695312 -19.9375 16.15625 -20.3125 C 17.613281 -20.6875 18.503906 -21.109375 18.828125 -21.578125 C 18.972656 -21.773438 19.113281 -21.875 19.25 -21.875 C 19.820312 -21.875 20.109375 -21.285156 20.109375 -20.109375 C 20.109375 -18.691406 19.398438 -17.609375 17.984375 -16.859375 C 16.578125 -16.109375 14.628906 -15.734375 12.140625 -15.734375 L 10.9375 -15.734375 C 8.820312 -15.734375 7.765625 -15.640625 7.765625 -15.453125 C 7.765625 -15.398438 7.785156 -15.1875 7.828125 -14.8125 C 7.878906 -14.476562 7.953125 -13.960938 8.046875 -13.265625 C 8.140625 -12.609375 8.234375 -12.019531 8.328125 -11.5 C 8.648438 -9.195312 8.8125 -6.914062 8.8125 -4.65625 C 8.8125 -2.488281 8.648438 -1.078125 8.328125 -0.421875 C 7.953125 0.234375 7.429688 0.5625 6.765625 0.5625 C 5.398438 0.5625 4.179688 -0.679688 3.109375 -3.171875 C 2.535156 -4.585938 2.039062 -7.195312 1.625 -11 C 1.195312 -14.8125 0.984375 -18.738281 0.984375 -22.78125 C 0.984375 -28.425781 1.289062 -33.976562 1.90625 -39.4375 C 2.46875 -44.84375 3.125 -48.132812 3.875 -49.3125 Z M 3.875 -49.3125 "/></g></g></g><g fill="#62ddd6" fill-opacity="1"><g transform="translate(102.893149, 224.626411)"><g><path d="M 24.96875 -34.921875 C 25.4375 -35.429688 25.929688 -35.6875 26.453125 -35.6875 C 27.484375 -35.6875 28.425781 -34.75 29.28125 -32.875 C 29.695312 -31.738281 29.90625 -29.691406 29.90625 -26.734375 C 29.90625 -26.078125 29.859375 -23.09375 29.765625 -17.78125 C 29.578125 -11.050781 29.34375 -6.796875 29.0625 -5.015625 C 28.78125 -3.265625 28.125 -2.390625 27.09375 -2.390625 L 26.59375 -2.390625 C 25.789062 -2.492188 24.992188 -3.015625 24.203125 -3.953125 C 23.722656 -4.660156 23.414062 -5.53125 23.28125 -6.5625 C 23.1875 -7.644531 23.113281 -10.019531 23.0625 -13.6875 C 22.96875 -19.09375 22.78125 -21.796875 22.5 -21.796875 C 22.269531 -21.796875 20.835938 -19.328125 18.203125 -14.390625 C 16.035156 -10.203125 14.578125 -7.566406 13.828125 -6.484375 C 13.023438 -5.453125 12.035156 -4.722656 10.859375 -4.296875 C 10.347656 -4.160156 9.832031 -4.09375 9.3125 -4.09375 C 7.800781 -4.09375 6.414062 -4.75 5.15625 -6.0625 C 3.832031 -7.382812 2.796875 -9.21875 2.046875 -11.5625 C 1.335938 -13.6875 0.984375 -17.285156 0.984375 -22.359375 C 0.984375 -27.253906 1.3125 -30.242188 1.96875 -31.328125 C 2.914062 -33.066406 3.882812 -33.9375 4.875 -33.9375 C 5.101562 -33.9375 5.265625 -33.910156 5.359375 -33.859375 C 6.109375 -33.671875 6.648438 -32.679688 6.984375 -30.890625 C 7.316406 -29.109375 7.550781 -26.148438 7.6875 -22.015625 C 7.832031 -17.734375 8.140625 -14.742188 8.609375 -13.046875 C 9.117188 -11.304688 9.941406 -10.4375 11.078125 -10.4375 C 11.972656 -10.4375 12.890625 -10.976562 13.828125 -12.0625 C 14.765625 -13.144531 16.289062 -15.351562 18.40625 -18.6875 C 20.238281 -21.65625 21.488281 -23.890625 22.15625 -25.390625 C 22.851562 -26.941406 23.414062 -28.867188 23.84375 -31.171875 C 24.125 -32.960938 24.5 -34.210938 24.96875 -34.921875 Z M 24.96875 -34.921875 "/></g></g></g><g fill="#62ddd6" fill-opacity="1"><g transform="translate(133.85538, 224.626411)"><g><path d="M 16.359375 -43.234375 C 17.679688 -43.941406 18.644531 -44.296875 19.25 -44.296875 C 19.769531 -44.296875 20.453125 -44.0625 21.296875 -43.59375 C 25.109375 -41.570312 27.015625 -37.53125 27.015625 -31.46875 C 27.015625 -24.3125 24.851562 -19.703125 20.53125 -17.640625 C 19.394531 -17.117188 18.523438 -16.859375 17.921875 -16.859375 C 17.453125 -16.859375 16.882812 -16.953125 16.21875 -17.140625 C 15.09375 -17.515625 14.128906 -18.195312 13.328125 -19.1875 C 12.535156 -20.21875 12.140625 -21.320312 12.140625 -22.5 C 12.140625 -23.632812 12.375 -24.878906 12.84375 -26.234375 C 13.351562 -27.554688 13.914062 -28.570312 14.53125 -29.28125 C 15.28125 -30.125 16.195312 -30.546875 17.28125 -30.546875 C 17.988281 -30.546875 18.34375 -30.285156 18.34375 -29.765625 C 18.34375 -29.253906 18.109375 -29 17.640625 -29 C 17.023438 -29 16.390625 -28.523438 15.734375 -27.578125 C 15.117188 -26.640625 14.8125 -25.722656 14.8125 -24.828125 C 14.8125 -23.554688 15.257812 -22.921875 16.15625 -22.921875 C 16.71875 -22.921875 17.375 -23.25 18.125 -23.90625 C 19.675781 -25.320312 20.453125 -28.050781 20.453125 -32.09375 L 20.453125 -32.734375 C 20.453125 -35.273438 20.265625 -37.320312 19.890625 -38.875 C 19.515625 -40.46875 19.019531 -41.265625 18.40625 -41.265625 C 17.46875 -41.265625 16.203125 -40.273438 14.609375 -38.296875 C 13.054688 -36.367188 11.476562 -33.757812 9.875 -30.46875 L 7.96875 -26.671875 C 8.019531 -25.535156 8.140625 -23.320312 8.328125 -20.03125 C 8.367188 -18.476562 8.554688 -14.550781 8.890625 -8.25 C 8.984375 -6.132812 9.03125 -4.984375 9.03125 -4.796875 C 9.03125 -3.523438 8.796875 -2.582031 8.328125 -1.96875 C 7.859375 -1.40625 7.316406 -1.125 6.703125 -1.125 C 5.898438 -1.125 5.125 -1.710938 4.375 -2.890625 C 3.625 -4.109375 3.035156 -5.707031 2.609375 -7.6875 C 2.273438 -9.382812 1.921875 -13.003906 1.546875 -18.546875 C 1.171875 -24.054688 0.984375 -28.617188 0.984375 -32.234375 C 0.984375 -34.253906 1.054688 -35.550781 1.203125 -36.125 C 1.671875 -38.332031 2.679688 -39.4375 4.234375 -39.4375 C 4.660156 -39.4375 5.15625 -39.316406 5.71875 -39.078125 C 6.414062 -38.753906 6.882812 -38.285156 7.125 -37.671875 C 7.363281 -37.054688 7.550781 -35.859375 7.6875 -34.078125 C 7.6875 -33.554688 7.734375 -32.800781 7.828125 -31.8125 C 8.109375 -32.332031 8.671875 -33.4375 9.515625 -35.125 C 11.679688 -39.3125 13.960938 -42.015625 16.359375 -43.234375 Z M 16.359375 -43.234375 "/></g></g></g><g fill="#62ddd6" fill-opacity="1"><g transform="translate(161.925922, 224.626411)"><g><path d="M 16.359375 -43.234375 C 17.679688 -43.941406 18.644531 -44.296875 19.25 -44.296875 C 19.769531 -44.296875 20.453125 -44.0625 21.296875 -43.59375 C 25.109375 -41.570312 27.015625 -37.53125 27.015625 -31.46875 C 27.015625 -24.3125 24.851562 -19.703125 20.53125 -17.640625 C 19.394531 -17.117188 18.523438 -16.859375 17.921875 -16.859375 C 17.453125 -16.859375 16.882812 -16.953125 16.21875 -17.140625 C 15.09375 -17.515625 14.128906 -18.195312 13.328125 -19.1875 C 12.535156 -20.21875 12.140625 -21.320312 12.140625 -22.5 C 12.140625 -23.632812 12.375 -24.878906 12.84375 -26.234375 C 13.351562 -27.554688 13.914062 -28.570312 14.53125 -29.28125 C 15.28125 -30.125 16.195312 -30.546875 17.28125 -30.546875 C 17.988281 -30.546875 18.34375 -30.285156 18.34375 -29.765625 C 18.34375 -29.253906 18.109375 -29 17.640625 -29 C 17.023438 -29 16.390625 -28.523438 15.734375 -27.578125 C 15.117188 -26.640625 14.8125 -25.722656 14.8125 -24.828125 C 14.8125 -23.554688 15.257812 -22.921875 16.15625 -22.921875 C 16.71875 -22.921875 17.375 -23.25 18.125 -23.90625 C 19.675781 -25.320312 20.453125 -28.050781 20.453125 -32.09375 L 20.453125 -32.734375 C 20.453125 -35.273438 20.265625 -37.320312 19.890625 -38.875 C 19.515625 -40.46875 19.019531 -41.265625 18.40625 -41.265625 C 17.46875 -41.265625 16.203125 -40.273438 14.609375 -38.296875 C 13.054688 -36.367188 11.476562 -33.757812 9.875 -30.46875 L 7.96875 -26.671875 C 8.019531 -25.535156 8.140625 -23.320312 8.328125 -20.03125 C 8.367188 -18.476562 8.554688 -14.550781 8.890625 -8.25 C 8.984375 -6.132812 9.03125 -4.984375 9.03125 -4.796875 C 9.03125 -3.523438 8.796875 -2.582031 8.328125 -1.96875 C 7.859375 -1.40625 7.316406 -1.125 6.703125 -1.125 C 5.898438 -1.125 5.125 -1.710938 4.375 -2.890625 C 3.625 -4.109375 3.035156 -5.707031 2.609375 -7.6875 C 2.273438 -9.382812 1.921875 -13.003906 1.546875 -18.546875 C 1.171875 -24.054688 0.984375 -28.617188 0.984375 -32.234375 C 0.984375 -34.253906 1.054688 -35.550781 1.203125 -36.125 C 1.671875 -38.332031 2.679688 -39.4375 4.234375 -39.4375 C 4.660156 -39.4375 5.15625 -39.316406 5.71875 -39.078125 C 6.414062 -38.753906 6.882812 -38.285156 7.125 -37.671875 C 7.363281 -37.054688 7.550781 -35.859375 7.6875 -34.078125 C 7.6875 -33.554688 7.734375 -32.800781 7.828125 -31.8125 C 8.109375 -32.332031 8.671875 -33.4375 9.515625 -35.125 C 11.679688 -39.3125 13.960938 -42.015625 16.359375 -43.234375 Z M 16.359375 -43.234375 "/></g></g></g><g fill="#62ddd6" fill-opacity="1"><g transform="translate(189.996464, 224.626411)"><g><path d="M 16.359375 -30.6875 C 15.847656 -31.207031 15.359375 -31.46875 14.890625 -31.46875 C 14.035156 -31.46875 12.8125 -30.453125 11.21875 -28.421875 C 9.664062 -26.398438 8.890625 -24.875 8.890625 -23.84375 C 8.890625 -23.601562 8.957031 -23.414062 9.09375 -23.28125 C 9.519531 -23 10.226562 -22.859375 11.21875 -22.859375 C 12.957031 -22.859375 14.203125 -23.160156 14.953125 -23.765625 C 16.503906 -25.035156 17.28125 -26.585938 17.28125 -28.421875 C 17.28125 -29.367188 16.972656 -30.125 16.359375 -30.6875 Z M 8.953125 -34.421875 C 10.503906 -35.222656 11.988281 -35.625 13.40625 -35.625 C 14.675781 -35.625 15.800781 -35.34375 16.78125 -34.78125 C 17.539062 -34.257812 18.316406 -33.34375 19.109375 -32.03125 C 19.910156 -30.664062 20.3125 -29.535156 20.3125 -28.640625 C 20.3125 -26.992188 19.675781 -25.300781 18.40625 -23.5625 C 17.132812 -21.820312 15.769531 -20.71875 14.3125 -20.25 C 13.425781 -20.007812 12.300781 -19.890625 10.9375 -19.890625 L 10.15625 -19.890625 C 9.78125 -19.890625 8.984375 -19.9375 7.765625 -20.03125 C 7.765625 -19.5625 7.785156 -18.625 7.828125 -17.21875 C 7.878906 -14.34375 8.539062 -12.34375 9.8125 -11.21875 C 11.070312 -10.039062 13.253906 -9.453125 16.359375 -9.453125 L 20.3125 -9.453125 L 20.3125 -8.046875 C 20.3125 -6.773438 19.5625 -5.570312 18.0625 -4.4375 C 16.550781 -3.363281 14.953125 -2.828125 13.265625 -2.828125 C 11.097656 -2.828125 8.976562 -3.554688 6.90625 -5.015625 C 4.84375 -6.460938 3.316406 -8.34375 2.328125 -10.65625 C 1.484375 -12.394531 1.0625 -14.882812 1.0625 -18.125 C 1.0625 -21.375 1.484375 -24.03125 2.328125 -26.09375 C 3.878906 -30.1875 6.085938 -32.960938 8.953125 -34.421875 Z M 8.953125 -34.421875 "/></g></g></g><g fill="#62ddd6" fill-opacity="1"><g transform="translate(211.366751, 224.626411)"><g><path d="M 22.4375 -33.9375 C 21.726562 -34.96875 21.160156 -35.484375 20.734375 -35.484375 C 20.359375 -35.484375 19.769531 -35.15625 18.96875 -34.5 C 18.125 -33.789062 17.703125 -32.988281 17.703125 -32.09375 L 17.703125 -31.671875 C 17.753906 -31.441406 17.78125 -31.253906 17.78125 -31.109375 C 17.875 -30.171875 18.035156 -29.46875 18.265625 -29 C 18.453125 -28.519531 18.945312 -28 19.75 -27.4375 C 20.738281 -26.59375 21.75 -26.003906 22.78125 -25.671875 C 23.15625 -25.535156 23.367188 -25.46875 23.421875 -25.46875 C 23.703125 -25.46875 23.84375 -25.820312 23.84375 -26.53125 C 23.84375 -26.664062 23.796875 -27.460938 23.703125 -28.921875 C 23.648438 -31.316406 23.226562 -32.988281 22.4375 -33.9375 Z M 17.421875 -36.609375 C 18.546875 -37.640625 19.675781 -38.15625 20.8125 -38.15625 C 21.707031 -38.15625 22.691406 -37.734375 23.765625 -36.890625 C 24.753906 -36.046875 25.578125 -34.773438 26.234375 -33.078125 C 26.847656 -31.390625 27.15625 -29.554688 27.15625 -27.578125 L 27.15625 -24.34375 L 29.5625 -24.34375 C 31.8125 -24.34375 32.9375 -23.867188 32.9375 -22.921875 C 32.9375 -22.546875 32.796875 -22.21875 32.515625 -21.9375 C 32.234375 -21.507812 31.578125 -21.296875 30.546875 -21.296875 C 30.023438 -21.296875 29.578125 -21.320312 29.203125 -21.375 C 28.585938 -21.414062 27.695312 -21.484375 26.53125 -21.578125 C 26.289062 -20.828125 25.796875 -19.300781 25.046875 -17 C 23.585938 -11.914062 22.175781 -8.128906 20.8125 -5.640625 C 19.445312 -3.191406 17.914062 -1.617188 16.21875 -0.921875 C 15.332031 -0.585938 14.601562 -0.421875 14.03125 -0.421875 C 12.34375 -0.421875 10.769531 -1.195312 9.3125 -2.75 C 7.800781 -4.351562 6.53125 -6.632812 5.5 -9.59375 C 3.53125 -15 2.097656 -20.523438 1.203125 -26.171875 C 1.054688 -27.296875 0.984375 -28.164062 0.984375 -28.78125 C 0.984375 -29.582031 1.242188 -30.3125 1.765625 -30.96875 C 2.421875 -31.957031 3.359375 -32.453125 4.578125 -32.453125 C 5.429688 -32.453125 6.09375 -32.191406 6.5625 -31.671875 C 7.125 -30.867188 7.59375 -29.363281 7.96875 -27.15625 C 8.488281 -23.300781 9.40625 -19.210938 10.71875 -14.890625 C 11.988281 -10.554688 13.046875 -8.0625 13.890625 -7.40625 C 14.078125 -7.257812 14.316406 -7.1875 14.609375 -7.1875 C 15.210938 -7.1875 15.960938 -7.539062 16.859375 -8.25 C 17.753906 -8.957031 18.484375 -9.828125 19.046875 -10.859375 C 19.703125 -11.992188 20.5 -13.921875 21.4375 -16.640625 C 22.382812 -19.328125 22.859375 -21.023438 22.859375 -21.734375 C 22.859375 -22.335938 22.289062 -22.898438 21.15625 -23.421875 C 19.882812 -23.941406 18.640625 -24.785156 17.421875 -25.953125 C 16.203125 -27.128906 15.425781 -28.238281 15.09375 -29.28125 C 14.90625 -29.84375 14.8125 -30.453125 14.8125 -31.109375 C 14.8125 -33.273438 15.679688 -35.109375 17.421875 -36.609375 Z M 17.421875 -36.609375 "/></g></g></g><g fill="#62ddd6" fill-opacity="1"><g transform="translate(245.2912, 224.626411)"><g><path d="M 16.359375 -30.6875 C 15.847656 -31.207031 15.359375 -31.46875 14.890625 -31.46875 C 14.035156 -31.46875 12.8125 -30.453125 11.21875 -28.421875 C 9.664062 -26.398438 8.890625 -24.875 8.890625 -23.84375 C 8.890625 -23.601562 8.957031 -23.414062 9.09375 -23.28125 C 9.519531 -23 10.226562 -22.859375 11.21875 -22.859375 C 12.957031 -22.859375 14.203125 -23.160156 14.953125 -23.765625 C 16.503906 -25.035156 17.28125 -26.585938 17.28125 -28.421875 C 17.28125 -29.367188 16.972656 -30.125 16.359375 -30.6875 Z M 8.953125 -34.421875 C 10.503906 -35.222656 11.988281 -35.625 13.40625 -35.625 C 14.675781 -35.625 15.800781 -35.34375 16.78125 -34.78125 C 17.539062 -34.257812 18.316406 -33.34375 19.109375 -32.03125 C 19.910156 -30.664062 20.3125 -29.535156 20.3125 -28.640625 C 20.3125 -26.992188 19.675781 -25.300781 18.40625 -23.5625 C 17.132812 -21.820312 15.769531 -20.71875 14.3125 -20.25 C 13.425781 -20.007812 12.300781 -19.890625 10.9375 -19.890625 L 10.15625 -19.890625 C 9.78125 -19.890625 8.984375 -19.9375 7.765625 -20.03125 C 7.765625 -19.5625 7.785156 -18.625 7.828125 -17.21875 C 7.878906 -14.34375 8.539062 -12.34375 9.8125 -11.21875 C 11.070312 -10.039062 13.253906 -9.453125 16.359375 -9.453125 L 20.3125 -9.453125 L 20.3125 -8.046875 C 20.3125 -6.773438 19.5625 -5.570312 18.0625 -4.4375 C 16.550781 -3.363281 14.953125 -2.828125 13.265625 -2.828125 C 11.097656 -2.828125 8.976562 -3.554688 6.90625 -5.015625 C 4.84375 -6.460938 3.316406 -8.34375 2.328125 -10.65625 C 1.484375 -12.394531 1.0625 -14.882812 1.0625 -18.125 C 1.0625 -21.375 1.484375 -24.03125 2.328125 -26.09375 C 3.878906 -30.1875 6.085938 -32.960938 8.953125 -34.421875 Z M 8.953125 -34.421875 "/></g></g></g><g fill="#62ddd6" fill-opacity="1"><g transform="translate(266.661495, 224.626411)"><g><path d="M 16.359375 -43.234375 C 17.679688 -43.941406 18.644531 -44.296875 19.25 -44.296875 C 19.769531 -44.296875 20.453125 -44.0625 21.296875 -43.59375 C 25.109375 -41.570312 27.015625 -37.53125 27.015625 -31.46875 C 27.015625 -24.3125 24.851562 -19.703125 20.53125 -17.640625 C 19.394531 -17.117188 18.523438 -16.859375 17.921875 -16.859375 C 17.453125 -16.859375 16.882812 -16.953125 16.21875 -17.140625 C 15.09375 -17.515625 14.128906 -18.195312 13.328125 -19.1875 C 12.535156 -20.21875 12.140625 -21.320312 12.140625 -22.5 C 12.140625 -23.632812 12.375 -24.878906 12.84375 -26.234375 C 13.351562 -27.554688 13.914062 -28.570312 14.53125 -29.28125 C 15.28125 -30.125 16.195312 -30.546875 17.28125 -30.546875 C 17.988281 -30.546875 18.34375 -30.285156 18.34375 -29.765625 C 18.34375 -29.253906 18.109375 -29 17.640625 -29 C 17.023438 -29 16.390625 -28.523438 15.734375 -27.578125 C 15.117188 -26.640625 14.8125 -25.722656 14.8125 -24.828125 C 14.8125 -23.554688 15.257812 -22.921875 16.15625 -22.921875 C 16.71875 -22.921875 17.375 -23.25 18.125 -23.90625 C 19.675781 -25.320312 20.453125 -28.050781 20.453125 -32.09375 L 20.453125 -32.734375 C 20.453125 -35.273438 20.265625 -37.320312 19.890625 -38.875 C 19.515625 -40.46875 19.019531 -41.265625 18.40625 -41.265625 C 17.46875 -41.265625 16.203125 -40.273438 14.609375 -38.296875 C 13.054688 -36.367188 11.476562 -33.757812 9.875 -30.46875 L 7.96875 -26.671875 C 8.019531 -25.535156 8.140625 -23.320312 8.328125 -20.03125 C 8.367188 -18.476562 8.554688 -14.550781 8.890625 -8.25 C 8.984375 -6.132812 9.03125 -4.984375 9.03125 -4.796875 C 9.03125 -3.523438 8.796875 -2.582031 8.328125 -1.96875 C 7.859375 -1.40625 7.316406 -1.125 6.703125 -1.125 C 5.898438 -1.125 5.125 -1.710938 4.375 -2.890625 C 3.625 -4.109375 3.035156 -5.707031 2.609375 -7.6875 C 2.273438 -9.382812 1.921875 -13.003906 1.546875 -18.546875 C 1.171875 -24.054688 0.984375 -28.617188 0.984375 -32.234375 C 0.984375 -34.253906 1.054688 -35.550781 1.203125 -36.125 C 1.671875 -38.332031 2.679688 -39.4375 4.234375 -39.4375 C 4.660156 -39.4375 5.15625 -39.316406 5.71875 -39.078125 C 6.414062 -38.753906 6.882812 -38.285156 7.125 -37.671875 C 7.363281 -37.054688 7.550781 -35.859375 7.6875 -34.078125 C 7.6875 -33.554688 7.734375 -32.800781 7.828125 -31.8125 C 8.109375 -32.332031 8.671875 -33.4375 9.515625 -35.125 C 11.679688 -39.3125 13.960938 -42.015625 16.359375 -43.234375 Z M 16.359375 -43.234375 "/></g></g></g><path stroke-linecap="butt" transform="matrix(0.536653, 0, 0, 0.536653, 80.25334, 151.10501)" fill="none" stroke-linejoin="miter" d="M 7.229021 45.130146 C 8.277185 43.637968 10.075078 42.895518 12.61542 42.895518 C 14.194945 42.895518 15.286783 43.201233 15.905491 43.812662 C 16.51692 44.511438 18.620527 45.348514 22.209034 46.309331 C 25.892166 47.270148 28.607203 47.757836 30.361422 47.757836 C 32.290335 47.757836 34.61231 48.281918 37.327346 49.330082 C 39.168913 50.123484 40.086056 50.691239 40.086056 51.040628 C 40.086056 51.302669 39.692995 51.739404 38.906872 52.358112 C 38.11347 53.056888 36.453876 53.406276 33.913534 53.406276 C 33.294826 53.406276 31.103872 53.318929 27.340671 53.144235 C 25.149717 53.056888 21.903319 52.882194 17.608758 52.620153 C 17.434064 54.017705 17.041002 56.827367 16.429573 61.027303 C 15.64345 66.814043 15.068415 74.653437 14.719027 84.560045 C 14.544333 87.88651 14.369639 92.836175 14.194945 99.409037 C 15.068415 99.583732 16.822635 99.802099 19.450324 100.06414 C 20.069032 100.151487 20.898829 100.195161 21.946993 100.195161 C 24.669308 100.195161 27.384345 99.845773 30.099381 99.146996 C 32.814417 98.44822 34.48129 97.654818 35.092719 96.781348 C 35.35476 96.43196 35.616801 96.257266 35.878842 96.257266 C 36.934285 96.257266 37.458367 97.349104 37.458367 99.540058 C 37.458367 102.167747 36.148162 104.184008 33.513193 105.588839 C 30.885504 106.986391 27.253324 107.692446 22.609374 107.692446 L 20.374747 107.692446 C 16.429573 107.692446 14.456986 107.86714 14.456986 108.216528 C 14.456986 108.303875 14.50066 108.696937 14.588007 109.395713 C 14.675354 110.014421 14.806374 110.975238 14.981068 112.292722 C 15.155762 113.515581 15.337735 114.614697 15.512429 115.575514 C 16.123858 119.870076 16.429573 124.120964 16.429573 128.328179 C 16.429573 132.35342 16.123858 134.98111 15.512429 136.211247 C 14.806374 137.441384 13.845557 138.052813 12.61542 138.052813 C 10.075078 138.052813 7.796776 135.730838 5.780516 131.086889 C 4.732352 128.459199 3.815208 123.596882 3.021806 116.492658 C 2.235683 109.395713 1.842621 102.0804 1.842621 94.54672 C 1.842621 84.028684 2.410377 73.69262 3.545888 63.523972 C 4.601331 53.449949 5.824189 47.313822 7.229021 45.130146 Z M 88.716507 71.938401 C 89.589978 70.977584 90.5144 70.497175 91.475217 70.497175 C 93.404131 70.497175 95.15835 72.244116 96.730596 75.752554 C 97.523998 77.856161 97.91706 81.663035 97.91706 87.187734 C 97.91706 88.410592 97.829713 93.978965 97.655019 103.878293 C 97.305631 116.405311 96.861617 124.339332 96.337534 127.665797 C 95.813452 130.912194 94.583315 132.528114 92.661681 132.528114 L 91.737258 132.528114 C 90.24508 132.35342 88.760181 131.392603 87.268003 129.638384 C 86.394533 128.328179 85.826777 126.70498 85.557457 124.776067 C 85.382763 122.759806 85.251742 118.334224 85.164395 111.49932 C 84.989701 101.425298 84.640313 96.388287 84.116231 96.388287 C 83.679496 96.388287 81.000854 100.988563 76.094864 110.189115 C 72.069622 117.984836 69.347307 122.890827 67.949754 124.907087 C 66.457576 126.836 64.61601 128.197158 62.425056 128.983281 C 61.464238 129.245322 60.503421 129.376343 59.535325 129.376343 C 56.732942 129.376343 54.148926 128.153485 51.783278 125.69321 C 49.330282 123.240215 47.401369 119.826402 45.996538 115.444494 C 44.686333 111.49932 44.023951 104.795437 44.023951 95.332843 C 44.023951 86.219638 44.642659 80.658545 45.865517 78.642284 C 47.619736 75.403166 49.417629 73.779967 51.259195 73.779967 C 51.695931 73.779967 52.001645 73.823641 52.176339 73.910988 C 53.58117 74.260376 54.585661 76.101942 55.19709 79.428408 C 55.815798 82.762152 56.252533 88.279572 56.514574 95.995225 C 56.776615 103.96564 57.344371 109.526733 58.22512 112.685784 C 59.185937 115.924902 60.721789 117.548101 62.825396 117.548101 C 64.484989 117.548101 66.195535 116.536331 67.949754 114.52735 C 69.703974 112.51109 72.550031 108.391222 76.495204 102.167747 C 79.909017 96.650328 82.230991 92.486786 83.461129 89.684403 C 84.771334 86.794673 85.826777 83.198887 86.6129 78.904326 C 87.136982 75.57786 87.835758 73.255885 88.716507 71.938401 Z M 130.373755 56.427027 C 132.82675 55.116822 134.624643 54.461719 135.767433 54.461719 C 136.72825 54.461719 138.002061 54.898454 139.574307 55.771924 C 146.671252 59.542404 150.223364 67.076084 150.223364 78.380243 C 150.223364 91.700663 146.190844 100.282508 138.133082 104.140334 C 136.029474 105.10843 134.406276 105.588839 133.263485 105.588839 C 132.390015 105.588839 131.341851 105.414145 130.111714 105.064757 C 128.008107 104.358702 126.210214 103.09217 124.725315 101.250604 C 123.233136 99.32169 122.490687 97.261757 122.490687 95.070802 C 122.490687 92.967195 122.927422 90.64522 123.800892 88.104878 C 124.768988 85.651883 125.817152 83.766643 126.959942 82.456438 C 128.357495 80.876912 130.06804 80.090789 132.084301 80.090789 C 133.401785 80.090789 134.056887 80.571198 134.056887 81.532015 C 134.056887 82.500111 133.620152 82.98052 132.739403 82.98052 C 131.603892 82.98052 130.417428 83.85399 129.19457 85.608209 C 128.05178 87.362428 127.484025 89.072974 127.484025 90.732567 C 127.484025 93.098216 128.313821 94.284679 129.980693 94.284679 C 131.028858 94.284679 132.258995 93.67325 133.663826 92.443113 C 136.553556 89.815424 138.002061 84.734739 138.002061 77.19378 L 138.002061 76.014595 C 138.002061 71.283298 137.645394 67.469145 136.946618 64.579415 C 136.247842 61.602338 135.323419 60.110159 134.187908 60.110159 C 132.433689 60.110159 130.06804 61.951726 127.090963 65.627579 C 124.201233 69.223365 121.26055 74.085682 118.283472 80.22181 L 114.73136 87.318755 C 114.818707 89.422362 115.044354 93.54223 115.393742 99.671079 C 115.481089 102.560809 115.830477 109.8834 116.441906 121.624295 C 116.6166 125.56219 116.703947 127.709471 116.703947 128.058859 C 116.703947 130.431786 116.267212 132.178726 115.393742 133.321516 C 114.512993 134.369681 113.508502 134.893763 112.365712 134.893763 C 110.880813 134.893763 109.432308 133.801925 108.034756 131.610971 C 106.629925 129.332669 105.530808 126.355592 104.744685 122.672459 C 104.133256 119.520688 103.478153 112.773131 102.772098 102.429788 C 102.073322 92.181072 101.723934 83.679296 101.723934 76.931739 C 101.723934 73.168538 101.854954 70.759216 102.116995 69.703773 C 102.990466 65.583906 104.875705 63.523972 107.765436 63.523972 C 108.558838 63.523972 109.475981 63.749618 110.531425 64.186353 C 111.84163 64.797783 112.722379 65.671253 113.159114 66.814043 C 113.595849 67.949554 113.945237 70.184182 114.207278 73.517926 C 114.207278 74.478743 114.294625 75.883575 114.469319 77.725141 C 115.00068 76.757045 116.048844 74.697111 117.62837 71.545339 C 121.653611 63.749618 125.904499 58.705328 130.373755 56.427027 Z M 182.68006 56.427027 C 185.133055 55.116822 186.930948 54.461719 188.073738 54.461719 C 189.034555 54.461719 190.308366 54.898454 191.880612 55.771924 C 198.977557 59.542404 202.529669 67.076084 202.529669 78.380243 C 202.529669 91.700663 198.497148 100.282508 190.439386 104.140334 C 188.335779 105.10843 186.71258 105.588839 185.577069 105.588839 C 184.69632 105.588839 183.648156 105.414145 182.418018 105.064757 C 180.314411 104.358702 178.516518 103.09217 177.031619 101.250604 C 175.539441 99.32169 174.796991 97.261757 174.796991 95.070802 C 174.796991 92.967195 175.233726 90.64522 176.107197 88.104878 C 177.075293 85.651883 178.123457 83.766643 179.266247 82.456438 C 180.663799 80.876912 182.374345 80.090789 184.390605 80.090789 C 185.708089 80.090789 186.363192 80.571198 186.363192 81.532015 C 186.363192 82.500111 185.926457 82.98052 185.045708 82.98052 C 183.910197 82.98052 182.723733 83.85399 181.500875 85.608209 C 180.358085 87.362428 179.790329 89.072974 179.790329 90.732567 C 179.790329 93.098216 180.620126 94.284679 182.286998 94.284679 C 183.342441 94.284679 184.565299 93.67325 185.97013 92.443113 C 188.859861 89.815424 190.308366 84.734739 190.308366 77.19378 L 190.308366 76.014595 C 190.308366 71.283298 189.951699 67.469145 189.252922 64.579415 C 188.554146 61.602338 187.629724 60.110159 186.494213 60.110159 C 184.739993 60.110159 182.374345 61.951726 179.397268 65.627579 C 176.507537 69.223365 173.566854 74.085682 170.589777 80.22181 L 167.037665 87.318755 C 167.132291 89.422362 167.350658 93.54223 167.700046 99.671079 C 167.787393 102.560809 168.136781 109.8834 168.748211 121.624295 C 168.922905 125.56219 169.010252 127.709471 169.010252 128.058859 C 169.010252 130.431786 168.573516 132.178726 167.700046 133.321516 C 166.819297 134.369681 165.814807 134.893763 164.672016 134.893763 C 163.187117 134.893763 161.738613 133.801925 160.34106 131.610971 C 158.936229 129.332669 157.837112 126.355592 157.050989 122.672459 C 156.43956 119.520688 155.784458 112.773131 155.078403 102.429788 C 154.379626 92.181072 154.030238 83.679296 154.030238 76.931739 C 154.030238 73.168538 154.161259 70.759216 154.4233 69.703773 C 155.29677 65.583906 157.18201 63.523972 160.07174 63.523972 C 160.865142 63.523972 161.782286 63.749618 162.837729 64.186353 C 164.147934 64.797783 165.028683 65.671253 165.465419 66.814043 C 165.902154 67.949554 166.251542 70.184182 166.513583 73.517926 C 166.513583 74.478743 166.60093 75.883575 166.775624 77.725141 C 167.306985 76.757045 168.355149 74.697111 169.934674 71.545339 C 173.959916 63.749618 178.210804 58.705328 182.68006 56.427027 Z M 234.986364 79.828748 C 234.025547 78.860652 233.108403 78.380243 232.227654 78.380243 C 230.648129 78.380243 228.369828 80.265483 225.39275 84.028684 C 222.50302 87.799163 221.054515 90.64522 221.054515 92.574133 C 221.054515 93.010869 221.185536 93.360257 221.447577 93.629577 C 222.240979 94.153659 223.551184 94.4157 225.39275 94.4157 C 228.639148 94.4157 230.961122 93.847944 232.358675 92.705154 C 235.248405 90.339506 236.69691 87.449775 236.69691 84.028684 C 236.69691 82.281743 236.129154 80.876912 234.986364 79.828748 Z M 221.185536 72.862824 C 224.082545 71.370645 226.841255 70.628196 229.468944 70.628196 C 231.834593 70.628196 233.9382 71.152278 235.779766 72.200442 C 237.177318 73.168538 238.625823 74.871805 240.118001 77.3248 C 241.602901 79.872422 242.352629 81.96875 242.352629 83.635622 C 242.352629 86.707326 241.166165 89.859097 238.800517 93.098216 C 236.434869 96.344613 233.894526 98.404547 231.17949 99.278017 C 229.512618 99.714752 227.40901 99.93312 224.868668 99.93312 L 223.420163 99.93312 C 222.721387 99.93312 221.229209 99.845773 218.950908 99.671079 C 218.950908 100.551828 218.994581 102.298768 219.081928 104.926457 C 219.169275 110.276462 220.399412 113.995989 222.765061 116.099596 C 225.130709 118.290551 229.206903 119.389667 234.986364 119.389667 L 242.352629 119.389667 L 242.352629 122.017357 C 242.352629 124.383005 240.947798 126.617633 238.145414 128.72124 C 235.335752 130.7375 232.358675 131.741991 229.206903 131.741991 C 225.174383 131.741991 221.229209 130.380833 217.378662 127.665797 C 213.520835 124.950761 210.674778 121.449601 208.833212 117.15504 C 207.253687 113.908642 206.467563 109.264692 206.467563 103.22319 C 206.467563 97.17441 207.253687 92.224745 208.833212 88.366919 C 211.722942 80.745892 215.84281 75.57786 221.185536 72.862824 Z M 286.113484 73.779967 C 284.796 71.851054 283.747836 70.890237 282.961712 70.890237 C 282.255657 70.890237 281.16382 71.501666 279.671642 72.724524 C 278.099395 74.042008 277.305993 75.534187 277.305993 77.19378 L 277.305993 77.987182 C 277.39334 78.423917 277.437014 78.773305 277.437014 79.035346 C 277.611708 80.789565 277.917422 82.107049 278.361436 82.98052 C 278.710824 83.85399 279.627968 84.822086 281.120146 85.87025 C 282.961712 87.449775 284.839673 88.541613 286.768587 89.160321 C 287.474642 89.422362 287.867703 89.553383 287.95505 89.553383 C 288.479132 89.553383 288.741173 88.891001 288.741173 87.580796 C 288.741173 87.318755 288.653826 85.826577 288.479132 83.11154 C 288.391785 78.642284 287.605662 75.534187 286.113484 73.779967 Z M 276.781911 68.78663 C 278.885518 66.857716 280.989126 65.896899 283.092733 65.896899 C 284.752326 65.896899 286.593893 66.683022 288.610153 68.262547 C 290.451719 69.834794 291.987571 72.200442 293.210429 75.359492 C 294.353219 78.511264 294.920975 81.925077 294.920975 85.608209 L 294.920975 91.65699 L 299.39023 91.65699 C 303.597445 91.65699 305.701052 92.53046 305.701052 94.284679 C 305.701052 94.983455 305.431732 95.594884 304.90765 96.126245 C 304.383568 96.912369 303.153431 97.30543 301.231797 97.30543 C 300.2637 97.30543 299.433904 97.261757 298.727849 97.17441 C 297.592338 97.087063 295.925465 96.956042 293.734511 96.781348 C 293.297776 98.186179 292.380632 101.032236 290.975801 105.326798 C 288.260765 114.789391 285.633075 121.842663 283.092733 126.486612 C 280.552391 131.043215 277.699055 133.976619 274.547283 135.294103 C 272.880411 135.905532 271.526532 136.211247 270.471089 136.211247 C 267.319318 136.211247 264.385914 134.762742 261.663598 131.873012 C 258.861215 128.895934 256.495567 124.645046 254.566653 119.127626 C 250.8908 109.046325 248.219437 98.753935 246.552565 88.235898 C 246.290524 86.132291 246.159503 84.516371 246.159503 83.373581 C 246.159503 81.881403 246.639912 80.527524 247.600729 79.297387 C 248.830866 77.4631 250.585085 76.538677 252.863387 76.538677 C 254.435633 76.538677 255.66577 77.019086 256.53924 77.987182 C 257.594683 79.472081 258.468153 82.281743 259.16693 86.394332 C 260.135026 93.585903 261.838292 101.20693 264.298567 109.264692 C 266.664215 117.329734 268.629523 121.973683 270.209048 123.196541 C 270.558436 123.458582 270.995171 123.596882 271.526532 123.596882 C 272.662044 123.596882 274.066875 122.9345 275.733747 121.624295 C 277.39334 120.306811 278.754498 118.683612 279.802662 116.761978 C 281.032799 114.658371 282.517698 111.062585 284.271918 105.9819 C 286.026137 100.988563 286.899607 97.829512 286.899607 96.519307 C 286.899607 95.376517 285.851443 94.328353 283.747836 93.360257 C 281.382187 92.399439 279.060212 90.819914 276.781911 88.62896 C 274.50361 86.438006 273.055105 84.385351 272.443676 82.456438 C 272.094288 81.400994 271.919594 80.265483 271.919594 79.035346 C 271.919594 75.002826 273.542793 71.589013 276.781911 68.78663 Z M 338.026727 79.828748 C 337.058631 78.860652 336.141487 78.380243 335.268017 78.380243 C 333.688492 78.380243 331.410191 80.265483 328.433113 84.028684 C 325.536104 87.799163 324.094878 90.64522 324.094878 92.574133 C 324.094878 93.010869 324.225898 93.360257 324.48794 93.629577 C 325.274063 94.153659 326.591547 94.4157 328.433113 94.4157 C 331.672232 94.4157 333.994206 93.847944 335.399038 92.705154 C 338.288768 90.339506 339.737273 87.449775 339.737273 84.028684 C 339.737273 82.281743 339.162238 80.876912 338.026727 79.828748 Z M 324.225898 72.862824 C 327.115629 71.370645 329.874339 70.628196 332.502028 70.628196 C 334.867677 70.628196 336.971284 71.152278 338.81285 72.200442 C 340.217681 73.168538 341.658907 74.871805 343.151085 77.3248 C 344.643263 79.872422 345.385713 81.96875 345.385713 83.635622 C 345.385713 86.707326 344.199249 89.859097 341.833601 93.098216 C 339.467953 96.344613 336.92761 98.404547 334.212574 99.278017 C 332.545702 99.714752 330.442094 99.93312 327.901752 99.93312 L 326.460526 99.93312 C 325.754471 99.93312 324.269572 99.845773 321.991271 99.671079 C 321.991271 100.551828 322.034944 102.298768 322.122291 104.926457 C 322.209638 110.276462 323.432496 113.995989 325.798145 116.099596 C 328.163793 118.290551 332.239987 119.389667 338.026727 119.389667 L 345.385713 119.389667 L 345.385713 122.017357 C 345.385713 124.383005 343.980882 126.617633 341.178498 128.72124 C 338.376115 130.7375 335.399038 131.741991 332.239987 131.741991 C 328.214746 131.741991 324.269572 130.380833 320.411745 127.665797 C 316.553919 124.950761 313.707862 121.449601 311.866296 117.15504 C 310.294049 113.908642 309.500647 109.264692 309.500647 103.22319 C 309.500647 97.17441 310.294049 92.224745 311.866296 88.366919 C 314.763305 80.745892 318.875894 75.57786 324.225898 72.862824 Z M 377.849687 56.427027 C 380.302683 55.116822 382.093296 54.461719 383.236086 54.461719 C 384.196904 54.461719 385.470714 54.898454 387.05024 55.771924 C 394.147185 59.542404 397.692018 67.076084 397.692018 78.380243 C 397.692018 91.700663 393.659497 100.282508 385.601735 104.140334 C 383.498128 105.10843 381.874929 105.588839 380.739418 105.588839 C 379.858669 105.588839 378.810504 105.414145 377.580367 105.064757 C 375.484039 104.358702 373.686146 103.09217 372.193968 101.250604 C 370.70179 99.32169 369.95934 97.261757 369.95934 95.070802 C 369.95934 92.967195 370.396075 90.64522 371.276824 88.104878 C 372.237641 85.651883 373.293085 83.766643 374.428596 82.456438 C 375.833427 80.876912 377.536694 80.090789 379.552954 80.090789 C 380.870438 80.090789 381.525541 80.571198 381.525541 81.532015 C 381.525541 82.500111 381.088806 82.98052 380.215336 82.98052 C 379.072545 82.98052 377.893361 83.85399 376.663224 85.608209 C 375.527712 87.362428 374.952678 89.072974 374.952678 90.732567 C 374.952678 93.098216 375.789753 94.284679 377.449347 94.284679 C 378.50479 94.284679 379.727648 93.67325 381.132479 92.443113 C 384.02221 89.815424 385.470714 84.734739 385.470714 77.19378 L 385.470714 76.014595 C 385.470714 71.283298 385.121326 67.469145 384.415271 64.579415 C 383.716495 61.602338 382.799351 60.110159 381.656561 60.110159 C 379.902342 60.110159 377.536694 61.951726 374.559616 65.627579 C 371.669886 69.223365 368.736482 74.085682 365.752126 80.22181 L 362.207292 87.318755 C 362.294639 89.422362 362.513007 93.54223 362.862395 99.671079 C 362.949742 102.560809 363.29913 109.8834 363.917838 121.624295 C 364.092532 125.56219 364.179879 127.709471 364.179879 128.058859 C 364.179879 130.431786 363.735865 132.178726 362.862395 133.321516 C 361.988925 134.369681 360.977155 134.893763 359.841644 134.893763 C 358.349466 134.893763 356.900961 133.801925 355.503409 131.610971 C 354.098578 129.332669 353.00674 126.355592 352.213338 122.672459 C 351.601909 119.520688 350.946806 112.773131 350.24803 102.429788 C 349.541975 92.181072 349.192587 83.679296 349.192587 76.931739 C 349.192587 73.168538 349.323608 70.759216 349.585649 69.703773 C 350.466398 65.583906 352.351638 63.523972 355.241368 63.523972 C 356.027491 63.523972 356.951914 63.749618 358.000078 64.186353 C 359.317562 64.797783 360.191032 65.671253 360.627767 66.814043 C 361.064502 67.949554 361.41389 70.184182 361.68321 73.517926 C 361.68321 74.478743 361.770557 75.883575 361.945251 77.725141 C 362.469334 76.757045 363.517498 74.697111 365.097023 71.545339 C 369.129543 63.749618 373.380432 58.705328 377.849687 56.427027 Z M 377.849687 56.427027 " stroke="#365b6d" stroke-width="1.261781" stroke-opacity="1" stroke-miterlimit="4"/><g clip-path="url(#1aeea8a4ae)"><path fill="#41c1ba" d="M 140.617188 101.710938 C 140.484375 100.667969 139.800781 99.890625 138.453125 100.289062 C 137.898438 100.449219 137.488281 100.808594 137.042969 101.136719 C 136.175781 101.757812 135.488281 102.59375 135.046875 103.5625 C 134.878906 103.925781 134.683594 104.269531 134.472656 104.683594 C 134.355469 104.546875 134.289062 104.480469 134.238281 104.402344 C 133.730469 103.625 133.046875 103.035156 132.242188 102.59375 C 131.875 102.390625 131.460938 102.253906 131.054688 102.132812 C 130.898438 102.089844 130.65625 102.121094 130.535156 102.214844 C 130.082031 102.570312 129.792969 103.054688 129.820312 103.644531 C 129.839844 104.054688 129.898438 104.476562 130.03125 104.863281 C 130.605469 106.558594 131.40625 108.113281 132.785156 109.316406 C 133.378906 109.828125 133.941406 110.375 134.5 110.925781 C 135.046875 111.464844 135.664062 111.929688 136.332031 112.316406 C 136.949219 112.675781 137.339844 112.585938 137.644531 111.949219 C 137.945312 111.328125 138.210938 110.6875 138.488281 110.058594 C 139.136719 108.59375 139.585938 107.058594 139.972656 105.507812 C 140.179688 104.660156 140.359375 103.800781 140.523438 102.941406 C 140.59375 102.535156 140.667969 102.109375 140.617188 101.710938 Z M 140.617188 101.710938 " fill-opacity="1" fill-rule="nonzero"/></g><g clip-path="url(#00fd36bda9)"><g clip-path="url(#bd57fc8eeb)"><g clip-path="url(#74e99b1f71)"><path fill="#41c1ba" d="M 130.199219 112.40625 C 129.648438 111.335938 128.609375 110.769531 127.3125 111.726562 C 126.777344 112.117188 126.476562 112.664062 126.121094 113.191406 C 125.433594 114.203125 125.023438 115.375 124.925781 116.59375 C 124.886719 117.046875 124.816406 117.496094 124.75 118.027344 C 124.570312 117.921875 124.472656 117.875 124.390625 117.816406 C 123.535156 117.175781 122.566406 116.808594 121.527344 116.648438 C 121.050781 116.578125 120.550781 116.589844 120.0625 116.621094 C 119.878906 116.632812 119.628906 116.761719 119.539062 116.914062 C 119.191406 117.472656 119.070312 118.109375 119.332031 118.730469 C 119.511719 119.164062 119.742188 119.597656 120.035156 119.964844 C 121.320312 121.5625 122.792969 122.921875 124.753906 123.675781 C 125.59375 124 126.414062 124.367188 127.230469 124.738281 C 128.035156 125.101562 128.878906 125.363281 129.75 125.515625 C 130.558594 125.660156 130.941406 125.410156 131.019531 124.605469 C 131.101562 123.816406 131.136719 123.023438 131.1875 122.234375 C 131.308594 120.402344 131.191406 118.574219 131 116.753906 C 130.890625 115.757812 130.746094 114.761719 130.582031 113.769531 C 130.5 113.304688 130.410156 112.816406 130.199219 112.40625 Z M 130.199219 112.40625 " fill-opacity="1" fill-rule="nonzero"/></g></g></g><g clip-path="url(#4d2834add1)"><g clip-path="url(#89deadcaef)"><g clip-path="url(#99fa2953eb)"><path fill="#41c1ba" d="M 125.75 246.796875 C 125.773438 246.902344 125.742188 247.015625 125.65625 247.097656 C 125.285156 247.460938 124.878906 247.800781 124.457031 248.113281 C 124.308594 248.222656 124.097656 248.191406 123.992188 248.042969 C 123.882812 247.894531 123.914062 247.6875 124.0625 247.578125 C 124.460938 247.28125 124.84375 246.960938 125.195312 246.621094 C 125.324219 246.492188 125.535156 246.5 125.660156 246.628906 C 125.714844 246.679688 125.738281 246.738281 125.75 246.796875 Z M 123.296875 248.605469 C 123.324219 248.742188 123.261719 248.886719 123.128906 248.957031 C 122.671875 249.207031 122.191406 249.429688 121.707031 249.621094 C 121.535156 249.6875 121.34375 249.601562 121.277344 249.429688 C 121.210938 249.261719 121.292969 249.070312 121.464844 249 C 121.925781 248.820312 122.378906 248.609375 122.808594 248.375 C 122.96875 248.285156 123.171875 248.347656 123.257812 248.503906 C 123.28125 248.539062 123.292969 248.570312 123.296875 248.605469 Z M 120.457031 249.710938 C 120.488281 249.886719 120.382812 250.054688 120.210938 250.097656 C 120.003906 250.148438 119.800781 250.191406 119.59375 250.230469 C 119.285156 250.289062 118.972656 250.339844 118.667969 250.371094 C 118.484375 250.390625 118.320312 250.265625 118.300781 250.078125 C 118.28125 249.894531 118.410156 249.734375 118.59375 249.714844 C 118.882812 249.679688 119.179688 249.632812 119.472656 249.578125 C 119.667969 249.539062 119.859375 249.5 120.054688 249.449219 C 120.230469 249.402344 120.410156 249.515625 120.457031 249.691406 C 120.453125 249.699219 120.453125 249.703125 120.457031 249.710938 Z M 117.429688 250.054688 C 117.433594 250.074219 117.433594 250.097656 117.433594 250.125 C 117.433594 250.308594 117.28125 250.453125 117.097656 250.449219 C 116.605469 250.441406 116.117188 250.398438 115.636719 250.328125 L 115.53125 250.308594 C 115.347656 250.28125 115.222656 250.113281 115.253906 249.933594 C 115.285156 249.75 115.453125 249.628906 115.632812 249.65625 L 115.734375 249.671875 C 116.1875 249.734375 116.648438 249.777344 117.109375 249.785156 C 117.265625 249.789062 117.398438 249.902344 117.429688 250.054688 Z M 113.914062 242.640625 C 113.945312 242.816406 113.964844 242.980469 113.984375 243.140625 C 114 243.324219 113.859375 243.484375 113.675781 243.5 C 113.492188 243.515625 113.332031 243.375 113.320312 243.195312 C 113.28125 242.722656 113.160156 242.265625 112.96875 241.824219 C 112.894531 241.65625 112.96875 241.460938 113.140625 241.390625 C 113.308594 241.316406 113.503906 241.394531 113.574219 241.5625 C 113.730469 241.917969 113.84375 242.28125 113.914062 242.640625 Z M 113.8125 244.617188 C 113.824219 244.671875 113.824219 244.726562 113.804688 244.78125 C 113.691406 245.136719 113.535156 245.460938 113.339844 245.753906 C 113.230469 245.910156 113.109375 246.070312 112.976562 246.214844 C 112.855469 246.355469 112.648438 246.363281 112.507812 246.242188 C 112.371094 246.121094 112.359375 245.910156 112.484375 245.773438 C 112.597656 245.648438 112.695312 245.519531 112.789062 245.382812 C 112.953125 245.140625 113.078125 244.871094 113.167969 244.582031 C 113.222656 244.410156 113.410156 244.3125 113.585938 244.363281 C 113.710938 244.402344 113.792969 244.503906 113.8125 244.617188 Z M 112.804688 240.332031 C 112.828125 240.453125 112.789062 240.578125 112.6875 240.652344 C 112.546875 240.769531 112.335938 240.746094 112.222656 240.601562 C 112.148438 240.511719 112.074219 240.421875 111.996094 240.332031 C 111.746094 240.058594 111.476562 239.8125 111.191406 239.601562 C 111.046875 239.492188 111.011719 239.289062 111.117188 239.140625 C 111.226562 238.992188 111.429688 238.957031 111.582031 239.066406 C 111.90625 239.300781 112.210938 239.578125 112.488281 239.890625 C 112.578125 239.988281 112.660156 240.085938 112.742188 240.1875 C 112.773438 240.234375 112.796875 240.28125 112.804688 240.332031 Z M 114.417969 249.574219 C 114.425781 249.625 114.425781 249.679688 114.410156 249.734375 C 114.355469 249.90625 114.171875 250.007812 113.996094 249.953125 C 113.5 249.800781 113.003906 249.613281 112.527344 249.402344 C 112.359375 249.328125 112.289062 249.128906 112.363281 248.964844 C 112.4375 248.796875 112.632812 248.722656 112.800781 248.796875 C 113.253906 249 113.71875 249.179688 114.1875 249.320312 C 114.308594 249.359375 114.394531 249.457031 114.417969 249.574219 Z M 110.339844 238.613281 C 110.347656 238.65625 110.347656 238.707031 110.335938 238.753906 C 110.292969 238.933594 110.113281 239.039062 109.9375 238.996094 C 109.625 238.921875 109.316406 238.898438 109.011719 238.941406 C 108.945312 238.949219 108.878906 238.957031 108.816406 238.96875 C 108.738281 238.984375 108.667969 239.003906 108.59375 239.023438 C 108.417969 239.074219 108.238281 238.972656 108.1875 238.792969 C 108.136719 238.617188 108.238281 238.4375 108.417969 238.386719 C 108.507812 238.359375 108.597656 238.339844 108.695312 238.320312 C 108.773438 238.304688 108.851562 238.292969 108.933594 238.28125 C 109.3125 238.234375 109.703125 238.261719 110.101562 238.355469 C 110.226562 238.386719 110.316406 238.488281 110.339844 238.613281 Z M 111.878906 246.890625 C 111.902344 247.023438 111.847656 247.164062 111.71875 247.238281 C 111.453125 247.398438 111.164062 247.546875 110.851562 247.675781 C 111.0625 247.820312 111.273438 247.964844 111.488281 248.097656 C 111.644531 248.195312 111.691406 248.398438 111.597656 248.554688 C 111.5 248.710938 111.296875 248.757812 111.140625 248.660156 C 110.761719 248.425781 110.394531 248.167969 110.046875 247.890625 C 109.980469 247.867188 109.921875 247.820312 109.882812 247.757812 C 109.875 247.753906 109.871094 247.746094 109.863281 247.742188 C 109.71875 247.625 109.699219 247.421875 109.816406 247.277344 C 109.921875 247.152344 110.105469 247.125 110.242188 247.203125 C 110.660156 247.050781 111.039062 246.871094 111.382812 246.671875 C 111.542969 246.578125 111.742188 246.628906 111.835938 246.785156 C 111.855469 246.820312 111.871094 246.855469 111.878906 246.890625 Z M 109.289062 246.375 C 109.308594 246.488281 109.273438 246.601562 109.1875 246.683594 C 109.054688 246.808594 108.84375 246.800781 108.714844 246.664062 C 108.359375 246.273438 108.027344 245.859375 107.734375 245.433594 C 107.632812 245.28125 107.667969 245.074219 107.820312 244.972656 C 107.972656 244.871094 108.179688 244.90625 108.28125 245.058594 C 108.554688 245.460938 108.863281 245.851562 109.203125 246.214844 C 109.246094 246.265625 109.277344 246.320312 109.289062 246.375 Z M 107.582031 239.472656 C 107.597656 239.5625 107.578125 239.65625 107.519531 239.734375 C 107.273438 240.0625 107.117188 240.484375 107.054688 240.988281 C 107.03125 241.167969 106.863281 241.300781 106.683594 241.277344 C 106.503906 241.253906 106.375 241.089844 106.394531 240.910156 C 106.472656 240.285156 106.675781 239.757812 106.988281 239.335938 C 107.097656 239.1875 107.308594 239.160156 107.453125 239.269531 C 107.527344 239.324219 107.566406 239.394531 107.582031 239.472656 Z M 109.003906 247.898438 C 109.003906 247.898438 109.007812 247.902344 109.007812 247.902344 C 109.039062 248.082031 108.917969 248.253906 108.738281 248.285156 C 108.234375 248.375 107.707031 248.4375 107.175781 248.460938 C 106.996094 248.46875 106.839844 248.332031 106.832031 248.148438 C 106.820312 247.964844 106.960938 247.808594 107.144531 247.800781 C 107.648438 247.773438 108.144531 247.71875 108.621094 247.632812 C 108.800781 247.601562 108.972656 247.722656 109.003906 247.898438 Z M 107.566406 243.863281 C 107.597656 244.011719 107.523438 244.164062 107.382812 244.226562 C 107.21875 244.304688 107.019531 244.234375 106.941406 244.070312 C 106.734375 243.621094 106.570312 243.117188 106.472656 242.609375 C 106.472656 242.609375 106.472656 242.605469 106.472656 242.605469 L 106.457031 242.53125 C 106.421875 242.351562 106.542969 242.179688 106.722656 242.148438 C 106.902344 242.113281 107.074219 242.234375 107.105469 242.410156 C 107.105469 242.410156 107.109375 242.414062 107.109375 242.414062 L 107.121094 242.480469 C 107.121094 242.480469 107.121094 242.484375 107.121094 242.484375 C 107.207031 242.9375 107.355469 243.390625 107.542969 243.789062 C 107.554688 243.8125 107.5625 243.839844 107.566406 243.863281 Z M 105.960938 248.054688 C 105.964844 248.082031 105.96875 248.113281 105.964844 248.140625 C 105.957031 248.324219 105.796875 248.460938 105.613281 248.453125 C 105.066406 248.414062 104.542969 248.339844 104.050781 248.238281 C 103.871094 248.199219 103.757812 248.023438 103.796875 247.84375 C 103.835938 247.664062 104.011719 247.550781 104.191406 247.589844 C 104.648438 247.6875 105.140625 247.75 105.65625 247.789062 C 105.808594 247.800781 105.933594 247.910156 105.960938 248.054688 Z M 102.984375 247.402344 C 102.996094 247.460938 102.992188 247.527344 102.964844 247.585938 C 102.898438 247.753906 102.707031 247.835938 102.535156 247.769531 C 102.074219 247.585938 101.59375 247.363281 101.113281 247.113281 C 100.953125 247.027344 100.890625 246.828125 100.976562 246.667969 C 101.0625 246.503906 101.261719 246.445312 101.421875 246.527344 C 101.875 246.769531 102.332031 246.976562 102.777344 247.15625 C 102.890625 247.199219 102.964844 247.292969 102.984375 247.402344 Z M 100.28125 245.984375 C 100.296875 246.066406 100.285156 246.152344 100.234375 246.226562 C 100.132812 246.378906 99.925781 246.421875 99.773438 246.324219 C 99.335938 246.039062 98.910156 245.734375 98.503906 245.414062 C 98.363281 245.300781 98.335938 245.09375 98.449219 244.949219 C 98.5625 244.804688 98.773438 244.777344 98.917969 244.890625 C 99.308594 245.199219 99.714844 245.492188 100.136719 245.765625 C 100.214844 245.820312 100.265625 245.898438 100.28125 245.984375 Z M 97.882812 244.089844 C 97.902344 244.195312 97.875 244.304688 97.796875 244.382812 C 97.671875 244.515625 97.460938 244.519531 97.332031 244.394531 C 96.941406 244.023438 96.578125 243.632812 96.261719 243.246094 C 96.144531 243.105469 96.167969 242.898438 96.304688 242.78125 C 96.445312 242.664062 96.652344 242.683594 96.769531 242.824219 C 97.074219 243.195312 97.417969 243.558594 97.789062 243.914062 C 97.839844 243.964844 97.871094 244.023438 97.882812 244.089844 Z M 95.976562 234.726562 C 95.992188 234.816406 95.972656 234.914062 95.914062 234.992188 C 95.667969 235.3125 95.46875 235.664062 95.3125 236.042969 C 95.242188 236.214844 95.050781 236.292969 94.882812 236.226562 C 94.714844 236.15625 94.632812 235.964844 94.699219 235.796875 C 94.875 235.359375 95.105469 234.957031 95.386719 234.589844 C 95.496094 234.445312 95.707031 234.417969 95.851562 234.527344 C 95.917969 234.578125 95.960938 234.652344 95.976562 234.726562 Z M 95.960938 241.730469 C 95.984375 241.863281 95.929688 242.003906 95.804688 242.074219 C 95.648438 242.171875 95.445312 242.117188 95.351562 241.960938 C 95.230469 241.757812 95.121094 241.558594 95.023438 241.351562 C 94.890625 241.082031 94.773438 240.800781 94.675781 240.515625 C 94.617188 240.34375 94.710938 240.152344 94.882812 240.09375 C 95.054688 240.03125 95.242188 240.125 95.304688 240.296875 C 95.394531 240.558594 95.5 240.8125 95.621094 241.058594 C 95.710938 241.246094 95.808594 241.433594 95.921875 241.617188 C 95.9375 241.65625 95.953125 241.691406 95.960938 241.730469 Z M 94.960938 237.335938 C 94.964844 237.367188 94.96875 237.402344 94.964844 237.433594 C 94.910156 237.902344 94.914062 238.390625 94.972656 238.882812 C 94.992188 239.066406 94.863281 239.230469 94.683594 239.25 C 94.503906 239.273438 94.339844 239.148438 94.316406 238.964844 C 94.25 238.421875 94.25 237.882812 94.308594 237.363281 C 94.328125 237.179688 94.492188 237.050781 94.675781 237.070312 C 94.820312 237.082031 94.933594 237.195312 94.960938 237.335938 Z M 94.960938 237.335938 " fill-opacity="1" fill-rule="nonzero"/></g></g></g><g clip-path="url(#400d3d1ee1)"><g clip-path="url(#9c2a207b09)"><g clip-path="url(#603e153ee2)"><path fill="#41c1ba" d="M 233.996094 165.84375 C 233.976562 165.738281 234.007812 165.625 234.089844 165.546875 C 234.457031 165.195312 234.855469 164.859375 235.269531 164.554688 C 235.414062 164.449219 235.621094 164.480469 235.726562 164.625 C 235.832031 164.769531 235.800781 164.976562 235.65625 165.082031 C 235.261719 165.371094 234.886719 165.683594 234.542969 166.015625 C 234.414062 166.140625 234.207031 166.136719 234.085938 166.007812 C 234.035156 165.957031 234.007812 165.898438 233.996094 165.84375 Z M 236.40625 164.078125 C 236.378906 163.945312 236.441406 163.800781 236.570312 163.730469 C 237.019531 163.488281 237.492188 163.273438 237.96875 163.089844 C 238.132812 163.023438 238.324219 163.105469 238.386719 163.273438 C 238.449219 163.441406 238.371094 163.628906 238.203125 163.695312 C 237.75 163.871094 237.308594 164.074219 236.882812 164.304688 C 236.726562 164.390625 236.527344 164.332031 236.445312 164.175781 C 236.421875 164.140625 236.414062 164.109375 236.40625 164.078125 Z M 239.191406 163 C 239.160156 162.832031 239.265625 162.664062 239.433594 162.625 C 239.636719 162.574219 239.835938 162.535156 240.039062 162.496094 C 240.339844 162.4375 240.648438 162.390625 240.949219 162.359375 C 241.125 162.339844 241.285156 162.460938 241.304688 162.644531 C 241.324219 162.824219 241.199219 162.984375 241.019531 163.003906 C 240.730469 163.035156 240.441406 163.078125 240.15625 163.132812 C 239.964844 163.171875 239.773438 163.210938 239.585938 163.257812 C 239.410156 163.300781 239.238281 163.195312 239.191406 163.019531 C 239.195312 163.015625 239.195312 163.007812 239.191406 163 Z M 242.160156 162.671875 C 242.15625 162.652344 242.15625 162.628906 242.152344 162.605469 C 242.15625 162.421875 242.304688 162.28125 242.484375 162.285156 C 242.964844 162.296875 243.445312 162.339844 243.914062 162.410156 L 244.019531 162.425781 C 244.195312 162.457031 244.316406 162.621094 244.289062 162.796875 C 244.257812 162.976562 244.09375 163.09375 243.917969 163.066406 L 243.816406 163.054688 C 243.375 162.988281 242.921875 162.945312 242.472656 162.9375 C 242.316406 162.933594 242.1875 162.820312 242.160156 162.671875 Z M 245.585938 169.945312 C 245.550781 169.773438 245.53125 169.609375 245.515625 169.453125 C 245.5 169.273438 245.636719 169.121094 245.816406 169.105469 C 245.996094 169.089844 246.152344 169.226562 246.164062 169.402344 C 246.199219 169.863281 246.320312 170.3125 246.507812 170.746094 C 246.578125 170.910156 246.503906 171.101562 246.335938 171.167969 C 246.171875 171.242188 245.980469 171.167969 245.914062 171 C 245.761719 170.652344 245.652344 170.296875 245.585938 169.945312 Z M 245.6875 168.007812 C 245.675781 167.957031 245.675781 167.898438 245.695312 167.847656 C 245.804688 167.5 245.957031 167.183594 246.15625 166.898438 C 246.257812 166.742188 246.378906 166.589844 246.507812 166.445312 C 246.628906 166.308594 246.832031 166.300781 246.96875 166.417969 C 247.105469 166.539062 247.113281 166.742188 246.992188 166.878906 C 246.882812 167 246.78125 167.128906 246.691406 167.261719 C 246.53125 167.496094 246.40625 167.761719 246.316406 168.042969 C 246.265625 168.214844 246.078125 168.308594 245.910156 168.257812 C 245.785156 168.21875 245.707031 168.117188 245.6875 168.007812 Z M 246.664062 172.207031 C 246.640625 172.089844 246.679688 171.96875 246.777344 171.894531 C 246.917969 171.78125 247.125 171.804688 247.234375 171.945312 C 247.308594 172.035156 247.378906 172.121094 247.457031 172.210938 C 247.699219 172.480469 247.960938 172.722656 248.238281 172.925781 C 248.382812 173.035156 248.417969 173.234375 248.3125 173.382812 C 248.203125 173.523438 248.003906 173.558594 247.859375 173.453125 C 247.539062 173.222656 247.242188 172.949219 246.96875 172.640625 C 246.882812 172.546875 246.800781 172.449219 246.722656 172.347656 C 246.691406 172.304688 246.671875 172.257812 246.664062 172.207031 Z M 245.105469 163.152344 C 245.097656 163.101562 245.097656 163.046875 245.113281 162.996094 C 245.167969 162.824219 245.347656 162.726562 245.519531 162.78125 C 246.007812 162.929688 246.492188 163.113281 246.957031 163.324219 C 247.121094 163.398438 247.191406 163.589844 247.117188 163.753906 C 247.046875 163.917969 246.851562 163.988281 246.6875 163.914062 C 246.246094 163.714844 245.792969 163.539062 245.332031 163.398438 C 245.210938 163.363281 245.128906 163.265625 245.105469 163.152344 Z M 249.070312 173.898438 C 249.0625 173.855469 249.066406 173.804688 249.074219 173.757812 C 249.121094 173.585938 249.296875 173.480469 249.46875 173.523438 C 249.773438 173.597656 250.078125 173.621094 250.371094 173.582031 C 250.4375 173.574219 250.503906 173.566406 250.566406 173.554688 C 250.640625 173.539062 250.714844 173.519531 250.785156 173.5 C 250.957031 173.453125 251.132812 173.554688 251.183594 173.726562 C 251.230469 173.902344 251.128906 174.078125 250.957031 174.125 C 250.867188 174.148438 250.777344 174.171875 250.683594 174.1875 C 250.605469 174.203125 250.53125 174.214844 250.449219 174.226562 C 250.078125 174.269531 249.695312 174.246094 249.308594 174.152344 C 249.183594 174.121094 249.09375 174.019531 249.070312 173.898438 Z M 247.589844 165.785156 C 247.5625 165.65625 247.621094 165.519531 247.742188 165.445312 C 248.007812 165.289062 248.289062 165.148438 248.59375 165.019531 C 248.390625 164.875 248.183594 164.738281 247.972656 164.605469 C 247.820312 164.511719 247.773438 164.308594 247.867188 164.15625 C 247.960938 164.003906 248.164062 163.960938 248.316406 164.054688 C 248.6875 164.285156 249.042969 164.539062 249.382812 164.8125 C 249.449219 164.835938 249.507812 164.882812 249.542969 164.941406 C 249.550781 164.945312 249.558594 164.953125 249.566406 164.957031 C 249.703125 165.070312 249.722656 165.273438 249.605469 165.410156 C 249.503906 165.535156 249.324219 165.5625 249.191406 165.484375 C 248.78125 165.632812 248.40625 165.808594 248.070312 166.003906 C 247.917969 166.09375 247.71875 166.042969 247.625 165.890625 C 247.609375 165.855469 247.59375 165.820312 247.589844 165.785156 Z M 250.125 166.296875 C 250.101562 166.1875 250.136719 166.078125 250.222656 165.996094 C 250.355469 165.875 250.5625 165.882812 250.683594 166.019531 C 251.035156 166.398438 251.359375 166.804688 251.644531 167.226562 C 251.742188 167.375 251.707031 167.578125 251.558594 167.675781 C 251.410156 167.777344 251.207031 167.738281 251.105469 167.589844 C 250.835938 167.195312 250.535156 166.8125 250.207031 166.457031 C 250.164062 166.40625 250.132812 166.351562 250.125 166.296875 Z M 251.777344 173.0625 C 251.761719 172.976562 251.78125 172.882812 251.835938 172.808594 C 252.078125 172.488281 252.234375 172.074219 252.296875 171.582031 C 252.320312 171.40625 252.484375 171.277344 252.660156 171.300781 C 252.835938 171.320312 252.964844 171.484375 252.941406 171.660156 C 252.863281 172.269531 252.667969 172.785156 252.355469 173.199219 C 252.25 173.34375 252.046875 173.371094 251.902344 173.265625 C 251.832031 173.210938 251.792969 173.140625 251.777344 173.0625 Z M 250.40625 164.808594 C 250.40625 164.808594 250.402344 164.804688 250.402344 164.804688 C 250.375 164.625 250.492188 164.457031 250.667969 164.425781 C 251.160156 164.339844 251.675781 164.285156 252.195312 164.257812 C 252.375 164.25 252.527344 164.386719 252.535156 164.570312 C 252.542969 164.746094 252.40625 164.898438 252.226562 164.910156 C 251.734375 164.929688 251.246094 164.988281 250.78125 165.066406 C 250.601562 165.097656 250.4375 164.980469 250.40625 164.808594 Z M 251.800781 168.761719 C 251.773438 168.617188 251.847656 168.46875 251.984375 168.40625 C 252.144531 168.332031 252.339844 168.402344 252.414062 168.5625 C 252.617188 169.003906 252.777344 169.496094 252.871094 169.996094 C 252.871094 169.996094 252.871094 170 252.871094 170 L 252.886719 170.070312 C 252.917969 170.246094 252.800781 170.414062 252.625 170.445312 C 252.449219 170.480469 252.28125 170.359375 252.25 170.1875 C 252.25 170.1875 252.25 170.183594 252.25 170.183594 L 252.238281 170.121094 C 252.238281 170.121094 252.234375 170.117188 252.234375 170.117188 C 252.152344 169.671875 252.011719 169.226562 251.828125 168.835938 C 251.816406 168.8125 251.808594 168.789062 251.800781 168.761719 Z M 253.386719 164.660156 C 253.382812 164.636719 253.378906 164.605469 253.382812 164.574219 C 253.394531 164.398438 253.550781 164.261719 253.726562 164.273438 C 254.261719 164.308594 254.777344 164.382812 255.257812 164.488281 C 255.433594 164.523438 255.542969 164.699219 255.507812 164.875 C 255.46875 165.050781 255.296875 165.160156 255.121094 165.121094 C 254.671875 165.023438 254.1875 164.960938 253.683594 164.921875 C 253.535156 164.910156 253.414062 164.800781 253.386719 164.660156 Z M 256.300781 165.308594 C 256.289062 165.25 256.292969 165.1875 256.320312 165.128906 C 256.382812 164.964844 256.574219 164.882812 256.742188 164.949219 C 257.195312 165.132812 257.660156 165.347656 258.132812 165.59375 C 258.289062 165.679688 258.347656 165.875 258.265625 166.035156 C 258.183594 166.191406 257.988281 166.25 257.828125 166.167969 C 257.382812 165.933594 256.9375 165.726562 256.503906 165.550781 C 256.390625 165.507812 256.320312 165.414062 256.300781 165.308594 Z M 258.945312 166.703125 C 258.929688 166.625 258.945312 166.539062 258.992188 166.46875 C 259.09375 166.316406 259.292969 166.273438 259.441406 166.375 C 259.871094 166.652344 260.285156 166.953125 260.683594 167.265625 C 260.824219 167.378906 260.847656 167.582031 260.738281 167.722656 C 260.625 167.863281 260.421875 167.890625 260.277344 167.777344 C 259.894531 167.476562 259.496094 167.1875 259.085938 166.921875 C 259.007812 166.863281 258.960938 166.789062 258.945312 166.703125 Z M 261.289062 168.566406 C 261.269531 168.464844 261.296875 168.355469 261.375 168.28125 C 261.5 168.152344 261.703125 168.144531 261.832031 168.269531 C 262.210938 168.636719 262.566406 169.015625 262.875 169.394531 C 262.988281 169.535156 262.96875 169.738281 262.832031 169.851562 C 262.695312 169.964844 262.492188 169.945312 262.375 169.808594 C 262.078125 169.445312 261.746094 169.085938 261.382812 168.738281 C 261.332031 168.6875 261.300781 168.628906 261.289062 168.566406 Z M 263.132812 177.742188 C 263.117188 177.65625 263.136719 177.558594 263.195312 177.484375 C 263.4375 177.171875 263.632812 176.828125 263.785156 176.453125 C 263.855469 176.289062 264.042969 176.210938 264.207031 176.277344 C 264.375 176.347656 264.449219 176.53125 264.386719 176.699219 C 264.210938 177.125 263.984375 177.519531 263.710938 177.878906 C 263.601562 178.019531 263.398438 178.046875 263.253906 177.941406 C 263.191406 177.886719 263.148438 177.816406 263.132812 177.742188 Z M 263.167969 170.882812 C 263.144531 170.753906 263.199219 170.617188 263.320312 170.542969 C 263.472656 170.453125 263.671875 170.503906 263.765625 170.65625 C 263.878906 170.855469 263.988281 171.054688 264.082031 171.253906 C 264.210938 171.519531 264.324219 171.796875 264.421875 172.078125 C 264.476562 172.246094 264.386719 172.429688 264.21875 172.488281 C 264.050781 172.546875 263.863281 172.457031 263.804688 172.289062 C 263.71875 172.03125 263.617188 171.78125 263.5 171.542969 C 263.410156 171.355469 263.3125 171.175781 263.203125 170.992188 C 263.1875 170.953125 263.175781 170.921875 263.167969 170.882812 Z M 264.136719 175.191406 C 264.128906 175.160156 264.125 175.125 264.132812 175.09375 C 264.1875 174.636719 264.183594 174.15625 264.125 173.675781 C 264.105469 173.496094 264.234375 173.335938 264.410156 173.3125 C 264.589844 173.292969 264.746094 173.417969 264.769531 173.597656 C 264.832031 174.125 264.832031 174.65625 264.773438 175.167969 C 264.753906 175.347656 264.59375 175.46875 264.414062 175.453125 C 264.273438 175.4375 264.160156 175.328125 264.136719 175.191406 Z M 264.136719 175.191406 " fill-opacity="1" fill-rule="nonzero"/></g></g></g><g clip-path="url(#0bb3b4f90e)"><path fill="#41c1ba" d="M 221.328125 96.539062 C 218.609375 97.421875 213.5625 100.519531 208.234375 104.523438 L 204.648438 107.222656 L 199.40625 106.578125 C 195.007812 106.046875 193.238281 105.960938 188.636719 105.960938 C 183.039062 105.980469 180.230469 106.226562 175.121094 107.132812 L 172.578125 107.597656 L 171.980469 107.042969 C 171.050781 106.179688 166.25 102.707031 164.105469 101.335938 C 161.207031 99.5 156.671875 97.378906 155.300781 97.222656 C 152.914062 96.933594 151.03125 98.128906 149.792969 100.71875 C 148.179688 104.101562 147.558594 107.90625 147.605469 114.277344 L 147.625 118.722656 L 145.96875 122.039062 C 144.109375 125.824219 142.960938 129.117188 142.074219 133.34375 C 141.542969 135.910156 141.457031 136.839844 141.457031 140.796875 C 141.433594 145.796875 141.699219 147.675781 142.9375 151.503906 C 144.90625 157.542969 148.601562 162.851562 152.980469 165.96875 C 157.890625 169.464844 165.632812 171.722656 178.171875 173.3125 C 184.5 174.109375 188.546875 174.308594 195.957031 174.199219 C 203.566406 174.066406 205.824219 173.824219 210.445312 172.628906 C 217.457031 170.8125 223.738281 167.1875 226.769531 163.160156 C 229.179688 159.976562 231.878906 153.429688 232.808594 148.519531 C 233.449219 145.222656 233.582031 142.480469 233.292969 138.941406 C 232.785156 132.59375 231.523438 127.503906 229.292969 122.617188 L 228.5625 121.046875 L 229.292969 117.859375 C 229.710938 116.113281 230.152344 113.945312 230.285156 113.058594 C 230.617188 110.980469 230.617188 104.390625 230.285156 102.753906 C 229.710938 99.878906 228.097656 97.863281 225.597656 96.933594 C 223.761719 96.25 222.523438 96.140625 221.328125 96.539062 Z M 224.511719 101.359375 C 225.222656 101.734375 225.621094 102.863281 225.863281 105.207031 C 226.238281 108.660156 225.730469 113.148438 224.445312 117.972656 C 224.070312 119.410156 223.761719 120.847656 223.761719 121.179688 C 223.761719 121.511719 224.070312 122.394531 224.445312 123.148438 C 227.167969 128.542969 228.695312 135.355469 228.695312 142.324219 C 228.714844 146.261719 228.296875 148.605469 226.859375 152.742188 C 224.84375 158.492188 222.699219 161.546875 218.808594 164.132812 C 215.664062 166.214844 212.589844 167.496094 208.453125 168.46875 C 198.8125 170.769531 179.898438 169.953125 166.273438 166.613281 C 158.175781 164.621094 153.996094 162.078125 150.613281 157.101562 C 145.636719 149.757812 144.597656 139.292969 147.847656 129.316406 C 148.6875 126.773438 150.257812 123.414062 151.453125 121.597656 L 152.339844 120.269531 L 152.226562 117.707031 C 152.027344 113.28125 152.207031 109.324219 152.691406 106.867188 C 153.222656 104.324219 154.085938 102.089844 154.660156 101.867188 C 155.191406 101.667969 160.191406 104.210938 163.484375 106.378906 C 165.035156 107.398438 167.421875 109.125 168.839844 110.25 L 171.382812 112.285156 L 172.664062 112.152344 C 173.375 112.085938 175.410156 111.753906 177.199219 111.402344 C 180.054688 110.871094 181.226562 110.78125 187.066406 110.695312 C 192.773438 110.582031 194.277344 110.628906 197.992188 111.046875 C 204.804688 111.820312 205.734375 111.867188 206.351562 111.535156 C 206.664062 111.378906 207.96875 110.429688 209.25 109.453125 C 213.742188 106.003906 218.542969 102.839844 221.285156 101.535156 C 222.722656 100.851562 223.472656 100.804688 224.511719 101.359375 Z M 224.511719 101.359375 " fill-opacity="1" fill-rule="nonzero"/></g><path fill="#41c1ba" d="M 170.609375 124.5625 C 170.121094 125.027344 170.121094 125.203125 170.121094 129.671875 C 170.121094 133.984375 170.144531 134.339844 170.585938 134.757812 C 171.207031 135.402344 173.308594 135.421875 174.082031 134.78125 C 174.613281 134.363281 174.632812 134.230469 174.722656 130.46875 C 174.8125 126.132812 174.699219 125.183594 174.039062 124.539062 C 173.394531 123.898438 171.316406 123.898438 170.609375 124.5625 Z M 170.609375 124.5625 " fill-opacity="1" fill-rule="nonzero"/><path fill="#41c1ba" d="M 203.167969 124.5625 C 202.878906 124.671875 202.484375 125.027344 202.261719 125.359375 C 201.886719 125.933594 201.886719 126.289062 202.152344 130.070312 C 202.460938 133.984375 202.484375 134.164062 203.101562 134.847656 C 203.632812 135.445312 203.921875 135.578125 204.714844 135.578125 C 205.535156 135.578125 205.800781 135.445312 206.398438 134.78125 L 207.105469 134.007812 L 206.929688 131.308594 C 206.640625 126.375 206.507812 125.710938 205.691406 124.984375 C 204.914062 124.296875 204.121094 124.164062 203.167969 124.5625 Z M 203.167969 124.5625 " fill-opacity="1" fill-rule="nonzero"/><path fill="#41c1ba" d="M 149.351562 138.320312 C 148.246094 139.425781 148.578125 141.152344 149.992188 141.816406 C 151.277344 142.414062 154.992188 142.746094 160.433594 142.765625 L 165.742188 142.789062 L 166.40625 142.015625 C 167.3125 141.019531 167.3125 140.066406 166.40625 139.160156 L 165.742188 138.476562 L 161.828125 138.476562 C 159.683594 138.476562 156.917969 138.363281 155.722656 138.253906 C 149.992188 137.65625 150.015625 137.65625 149.351562 138.320312 Z M 149.351562 138.320312 " fill-opacity="1" fill-rule="nonzero"/><path fill="#41c1ba" d="M 221.902344 138.960938 C 221.195312 139.074219 218.164062 139.472656 215.179688 139.847656 C 209.980469 140.511719 209.695312 140.578125 209.183594 141.152344 C 208.035156 142.5 209.03125 144.757812 210.800781 144.757812 C 211.773438 144.757812 216.195312 144.226562 221.4375 143.496094 C 225.175781 142.964844 225.554688 142.878906 226.019531 142.324219 C 226.835938 141.394531 226.746094 140.089844 225.839844 139.316406 C 225.066406 138.675781 224.3125 138.609375 221.902344 138.960938 Z M 221.902344 138.960938 " fill-opacity="1" fill-rule="nonzero"/><path fill="#41c1ba" d="M 183.039062 142.613281 C 182.488281 143.230469 182.554688 143.695312 183.328125 144.359375 C 184.257812 145.132812 186.933594 146.617188 187.417969 146.617188 C 187.929688 146.617188 191.269531 144.890625 191.910156 144.269531 C 192.484375 143.738281 192.527344 143.386719 192.085938 142.765625 C 191.777344 142.367188 191.402344 142.300781 187.597656 142.234375 C 183.769531 142.167969 183.414062 142.214844 183.039062 142.613281 Z M 183.039062 142.613281 " fill-opacity="1" fill-rule="nonzero"/><path fill="#41c1ba" d="M 159.769531 145.707031 C 155.523438 146.105469 149.992188 146.902344 149.394531 147.234375 C 149.042969 147.410156 148.644531 147.742188 148.511719 147.988281 C 147.890625 149.160156 148.578125 150.816406 149.792969 151.128906 C 150.125 151.214844 152.667969 151.015625 155.433594 150.707031 C 158.199219 150.375 161.40625 150.023438 162.558594 149.890625 C 164.460938 149.691406 164.703125 149.625 165.277344 148.960938 C 165.964844 148.1875 166.074219 147.699219 165.699219 146.75 C 165.234375 145.507812 164.105469 145.308594 159.769531 145.707031 Z M 159.769531 145.707031 " fill-opacity="1" fill-rule="nonzero"/><path fill="#41c1ba" d="M 211.640625 147.011719 C 211.285156 147.058594 210.734375 147.433594 210.421875 147.808594 C 209.117188 149.359375 210.089844 151.105469 212.390625 151.347656 C 214.871094 151.59375 225.089844 151.660156 225.53125 151.4375 C 226.8125 150.75 227.167969 149.179688 226.238281 148.121094 C 225.773438 147.542969 225.488281 147.476562 223.519531 147.300781 C 220.839844 147.078125 212.503906 146.882812 211.640625 147.011719 Z M 211.640625 147.011719 " fill-opacity="1" fill-rule="nonzero"/><path fill="#41c1ba" d="M 170.894531 152.078125 C 170.628906 152.5 170.5625 152.808594 170.71875 153.117188 C 171.140625 154.070312 174.8125 157.5 176.226562 158.273438 C 177.53125 158.980469 177.839844 159.046875 179.632812 159.046875 C 181.402344 159.046875 181.777344 158.957031 183.148438 158.292969 C 183.992188 157.875 185.339844 156.921875 186.160156 156.171875 L 187.640625 154.800781 L 189.210938 156.414062 C 192.550781 159.84375 196.464844 160.507812 200.226562 158.292969 C 201.222656 157.742188 204.804688 154.753906 205.359375 154.070312 C 205.757812 153.539062 205.710938 152.941406 205.179688 152.410156 C 204.363281 151.613281 203.699219 151.835938 201.90625 153.472656 C 199.054688 156.082031 197.503906 156.921875 195.648438 156.902344 C 193.570312 156.878906 191.777344 155.730469 189.609375 152.984375 C 187.929688 150.882812 187.550781 150.90625 185.164062 153.339844 C 181.070312 157.476562 178.328125 157.5 174.414062 153.429688 C 172.332031 151.261719 171.605469 150.996094 170.894531 152.078125 Z M 170.894531 152.078125 " fill-opacity="1" fill-rule="nonzero"/><g fill="#41c1ba" fill-opacity="1"><g transform="translate(133.9519, 245.422923)"><g><path d="M 7.609375 0.109375 C 6.347656 0.109375 5.207031 -0.164062 4.1875 -0.71875 C 3.175781 -1.28125 2.382812 -2.054688 1.8125 -3.046875 C 1.238281 -4.035156 0.953125 -5.144531 0.953125 -6.375 C 0.953125 -7.59375 1.238281 -8.695312 1.8125 -9.6875 C 2.382812 -10.675781 3.179688 -11.445312 4.203125 -12 C 5.222656 -12.5625 6.363281 -12.84375 7.625 -12.84375 C 8.570312 -12.84375 9.445312 -12.6875 10.25 -12.375 C 11.050781 -12.0625 11.726562 -11.601562 12.28125 -11 L 11.4375 -10.140625 C 10.4375 -11.148438 9.175781 -11.65625 7.65625 -11.65625 C 6.65625 -11.65625 5.738281 -11.421875 4.90625 -10.953125 C 4.082031 -10.492188 3.4375 -9.863281 2.96875 -9.0625 C 2.507812 -8.257812 2.28125 -7.363281 2.28125 -6.375 C 2.28125 -5.375 2.507812 -4.472656 2.96875 -3.671875 C 3.4375 -2.867188 4.082031 -2.238281 4.90625 -1.78125 C 5.738281 -1.320312 6.65625 -1.09375 7.65625 -1.09375 C 9.1875 -1.09375 10.445312 -1.601562 11.4375 -2.625 L 12.28125 -1.765625 C 11.726562 -1.160156 11.046875 -0.695312 10.234375 -0.375 C 9.429688 -0.0507812 8.554688 0.109375 7.609375 0.109375 Z M 7.609375 0.109375 "/></g></g></g><g fill="#41c1ba" fill-opacity="1"><g transform="translate(148.85738, 245.422923)"><g><path d="M 10.0625 -3.40625 L 2.96875 -3.40625 L 1.4375 0 L 0.03125 0 L 5.859375 -12.734375 L 7.1875 -12.734375 L 13.015625 0 L 11.59375 0 Z M 9.578125 -4.5 L 6.515625 -11.34375 L 3.453125 -4.5 Z M 9.578125 -4.5 "/></g></g></g><g fill="#41c1ba" fill-opacity="1"><g transform="translate(163.726456, 245.422923)"><g><path d="M 4.546875 -11.578125 L 0.078125 -11.578125 L 0.078125 -12.734375 L 10.375 -12.734375 L 10.375 -11.578125 L 5.890625 -11.578125 L 5.890625 0 L 4.546875 0 Z M 4.546875 -11.578125 "/></g></g></g><g fill="#41c1ba" fill-opacity="1"><g transform="translate(175.993054, 245.422923)"><g/></g></g><g fill="#41c1ba" fill-opacity="1"><g transform="translate(182.581528, 245.422923)"><g><path d="M 7.609375 0.109375 C 6.347656 0.109375 5.207031 -0.164062 4.1875 -0.71875 C 3.175781 -1.28125 2.382812 -2.054688 1.8125 -3.046875 C 1.238281 -4.035156 0.953125 -5.144531 0.953125 -6.375 C 0.953125 -7.59375 1.238281 -8.695312 1.8125 -9.6875 C 2.382812 -10.675781 3.179688 -11.445312 4.203125 -12 C 5.222656 -12.5625 6.363281 -12.84375 7.625 -12.84375 C 8.570312 -12.84375 9.445312 -12.6875 10.25 -12.375 C 11.050781 -12.0625 11.726562 -11.601562 12.28125 -11 L 11.4375 -10.140625 C 10.4375 -11.148438 9.175781 -11.65625 7.65625 -11.65625 C 6.65625 -11.65625 5.738281 -11.421875 4.90625 -10.953125 C 4.082031 -10.492188 3.4375 -9.863281 2.96875 -9.0625 C 2.507812 -8.257812 2.28125 -7.363281 2.28125 -6.375 C 2.28125 -5.375 2.507812 -4.472656 2.96875 -3.671875 C 3.4375 -2.867188 4.082031 -2.238281 4.90625 -1.78125 C 5.738281 -1.320312 6.65625 -1.09375 7.65625 -1.09375 C 9.1875 -1.09375 10.445312 -1.601562 11.4375 -2.625 L 12.28125 -1.765625 C 11.726562 -1.160156 11.046875 -0.695312 10.234375 -0.375 C 9.429688 -0.0507812 8.554688 0.109375 7.609375 0.109375 Z M 7.609375 0.109375 "/></g></g></g><g fill="#41c1ba" fill-opacity="1"><g transform="translate(197.487011, 245.422923)"><g><path d="M 10.0625 -3.40625 L 2.96875 -3.40625 L 1.4375 0 L 0.03125 0 L 5.859375 -12.734375 L 7.1875 -12.734375 L 13.015625 0 L 11.59375 0 Z M 9.578125 -4.5 L 6.515625 -11.34375 L 3.453125 -4.5 Z M 9.578125 -4.5 "/></g></g></g><g fill="#41c1ba" fill-opacity="1"><g transform="translate(212.356089, 245.422923)"><g><path d="M 3.421875 -11.578125 L 3.421875 -6.578125 L 10.015625 -6.578125 L 10.015625 -5.40625 L 3.421875 -5.40625 L 3.421875 0 L 2.078125 0 L 2.078125 -12.734375 L 10.8125 -12.734375 L 10.8125 -11.578125 Z M 3.421875 -11.578125 "/></g></g></g><g fill="#41c1ba" fill-opacity="1"><g transform="translate(225.696443, 245.422923)"><g><path d="M 11.078125 -1.171875 L 11.078125 0 L 2.078125 0 L 2.078125 -12.734375 L 10.8125 -12.734375 L 10.8125 -11.578125 L 3.421875 -11.578125 L 3.421875 -7.046875 L 10.015625 -7.046875 L 10.015625 -5.890625 L 3.421875 -5.890625 L 3.421875 -1.171875 Z M 11.078125 -1.171875 "/></g></g></g></svg>